G04 EAGLE Gerber RS-274X export*
G75*
%MOMM*%
%FSLAX34Y34*%
%LPD*%
%INTop Copper*%
%IPPOS*%
%AMOC8*
5,1,8,0,0,1.08239X$1,22.5*%
G01*
%ADD10R,1.288000X1.288000*%
%ADD11C,1.288000*%
%ADD12C,3.220000*%
%ADD13C,1.016000*%
%ADD14C,4.445000*%
%ADD15R,1.524000X1.524000*%
%ADD16P,1.649562X8X22.500000*%
%ADD17C,1.960000*%
%ADD18R,1.031241X0.949959*%
%ADD19R,0.949959X1.031241*%
%ADD20R,0.904800X0.904800*%
%ADD21C,0.254000*%
%ADD22C,0.609600*%

G36*
X1267444Y885308D02*
X1267444Y885308D01*
X1267437Y885427D01*
X1267424Y885465D01*
X1267419Y885506D01*
X1267376Y885616D01*
X1267339Y885729D01*
X1267317Y885764D01*
X1267302Y885801D01*
X1267233Y885897D01*
X1267169Y885998D01*
X1267139Y886026D01*
X1267116Y886059D01*
X1267024Y886135D01*
X1266937Y886216D01*
X1266902Y886236D01*
X1266871Y886261D01*
X1266763Y886312D01*
X1266659Y886370D01*
X1266619Y886380D01*
X1266583Y886397D01*
X1266466Y886419D01*
X1266351Y886449D01*
X1266291Y886453D01*
X1266271Y886457D01*
X1266250Y886455D01*
X1266190Y886459D01*
X3810Y886459D01*
X3692Y886444D01*
X3573Y886437D01*
X3535Y886424D01*
X3494Y886419D01*
X3384Y886376D01*
X3271Y886339D01*
X3236Y886317D01*
X3199Y886302D01*
X3103Y886233D01*
X3002Y886169D01*
X2974Y886139D01*
X2941Y886116D01*
X2865Y886024D01*
X2784Y885937D01*
X2764Y885902D01*
X2739Y885871D01*
X2688Y885763D01*
X2630Y885659D01*
X2620Y885619D01*
X2603Y885583D01*
X2581Y885466D01*
X2551Y885351D01*
X2547Y885291D01*
X2543Y885271D01*
X2545Y885250D01*
X2541Y885190D01*
X2541Y3810D01*
X2556Y3692D01*
X2563Y3573D01*
X2576Y3535D01*
X2581Y3494D01*
X2624Y3384D01*
X2661Y3271D01*
X2683Y3236D01*
X2698Y3199D01*
X2767Y3103D01*
X2831Y3002D01*
X2861Y2974D01*
X2884Y2941D01*
X2976Y2865D01*
X3063Y2784D01*
X3098Y2764D01*
X3129Y2739D01*
X3237Y2688D01*
X3341Y2630D01*
X3381Y2620D01*
X3417Y2603D01*
X3534Y2581D01*
X3649Y2551D01*
X3709Y2547D01*
X3729Y2543D01*
X3750Y2545D01*
X3810Y2541D01*
X1266190Y2541D01*
X1266308Y2556D01*
X1266427Y2563D01*
X1266465Y2576D01*
X1266506Y2581D01*
X1266616Y2624D01*
X1266729Y2661D01*
X1266764Y2683D01*
X1266801Y2698D01*
X1266897Y2767D01*
X1266998Y2831D01*
X1267026Y2861D01*
X1267059Y2884D01*
X1267135Y2976D01*
X1267216Y3063D01*
X1267236Y3098D01*
X1267261Y3129D01*
X1267312Y3237D01*
X1267370Y3341D01*
X1267380Y3381D01*
X1267397Y3417D01*
X1267419Y3534D01*
X1267449Y3649D01*
X1267453Y3709D01*
X1267457Y3729D01*
X1267455Y3750D01*
X1267459Y3810D01*
X1267459Y885190D01*
X1267444Y885308D01*
G37*
%LPC*%
G36*
X63500Y824231D02*
X63500Y824231D01*
X63618Y824246D01*
X63737Y824253D01*
X63775Y824266D01*
X63816Y824271D01*
X63926Y824314D01*
X64039Y824351D01*
X64074Y824373D01*
X64111Y824388D01*
X64207Y824458D01*
X64308Y824521D01*
X64336Y824551D01*
X64369Y824574D01*
X64445Y824666D01*
X64526Y824753D01*
X64546Y824788D01*
X64571Y824819D01*
X64622Y824927D01*
X64680Y825031D01*
X64690Y825071D01*
X64707Y825107D01*
X64729Y825224D01*
X64759Y825339D01*
X64763Y825400D01*
X64767Y825420D01*
X64765Y825440D01*
X64769Y825500D01*
X64769Y875031D01*
X1205231Y875031D01*
X1205231Y812800D01*
X1205246Y812682D01*
X1205253Y812563D01*
X1205266Y812525D01*
X1205271Y812484D01*
X1205314Y812374D01*
X1205351Y812261D01*
X1205373Y812226D01*
X1205388Y812189D01*
X1205458Y812093D01*
X1205521Y811992D01*
X1205551Y811964D01*
X1205574Y811931D01*
X1205666Y811856D01*
X1205753Y811774D01*
X1205788Y811754D01*
X1205819Y811729D01*
X1205927Y811678D01*
X1206031Y811620D01*
X1206071Y811610D01*
X1206107Y811593D01*
X1206224Y811571D01*
X1206339Y811541D01*
X1206400Y811537D01*
X1206420Y811533D01*
X1206440Y811535D01*
X1206500Y811531D01*
X1256031Y811531D01*
X1256031Y796366D01*
X1256046Y796248D01*
X1256053Y796129D01*
X1256066Y796091D01*
X1256071Y796051D01*
X1256114Y795940D01*
X1256151Y795827D01*
X1256173Y795793D01*
X1256188Y795755D01*
X1256258Y795659D01*
X1256321Y795558D01*
X1256351Y795530D01*
X1256374Y795498D01*
X1256466Y795422D01*
X1256553Y795340D01*
X1256588Y795321D01*
X1256619Y795295D01*
X1256727Y795244D01*
X1256831Y795187D01*
X1256871Y795176D01*
X1256907Y795159D01*
X1257024Y795137D01*
X1257139Y795107D01*
X1257200Y795103D01*
X1257220Y795099D01*
X1257240Y795101D01*
X1257300Y795097D01*
X1257685Y795097D01*
X1258332Y794924D01*
X1258911Y794589D01*
X1259384Y794116D01*
X1259718Y793537D01*
X1259892Y792891D01*
X1259892Y789774D01*
X1257300Y789774D01*
X1257182Y789759D01*
X1257063Y789752D01*
X1257025Y789739D01*
X1256984Y789734D01*
X1256874Y789690D01*
X1256761Y789654D01*
X1256726Y789632D01*
X1256689Y789617D01*
X1256593Y789547D01*
X1256492Y789484D01*
X1256464Y789454D01*
X1256431Y789430D01*
X1256356Y789339D01*
X1256274Y789252D01*
X1256254Y789217D01*
X1256229Y789185D01*
X1256178Y789078D01*
X1256120Y788974D01*
X1256110Y788934D01*
X1256093Y788898D01*
X1256071Y788781D01*
X1256041Y788666D01*
X1256037Y788605D01*
X1256033Y788585D01*
X1256035Y788565D01*
X1256031Y788505D01*
X1256031Y786295D01*
X1256046Y786177D01*
X1256053Y786058D01*
X1256066Y786020D01*
X1256071Y785980D01*
X1256114Y785869D01*
X1256151Y785756D01*
X1256173Y785721D01*
X1256188Y785684D01*
X1256258Y785588D01*
X1256321Y785487D01*
X1256351Y785459D01*
X1256374Y785427D01*
X1256466Y785351D01*
X1256553Y785269D01*
X1256588Y785250D01*
X1256619Y785224D01*
X1256727Y785173D01*
X1256831Y785116D01*
X1256871Y785105D01*
X1256907Y785088D01*
X1257024Y785066D01*
X1257139Y785036D01*
X1257200Y785032D01*
X1257220Y785028D01*
X1257240Y785030D01*
X1257300Y785026D01*
X1259891Y785026D01*
X1259892Y781909D01*
X1259718Y781263D01*
X1259384Y780684D01*
X1258911Y780211D01*
X1258332Y779876D01*
X1257685Y779703D01*
X1257300Y779703D01*
X1257182Y779688D01*
X1257063Y779681D01*
X1257025Y779668D01*
X1256984Y779663D01*
X1256874Y779619D01*
X1256761Y779583D01*
X1256726Y779561D01*
X1256689Y779546D01*
X1256593Y779476D01*
X1256492Y779413D01*
X1256464Y779383D01*
X1256431Y779359D01*
X1256356Y779268D01*
X1256274Y779181D01*
X1256254Y779146D01*
X1256229Y779114D01*
X1256178Y779007D01*
X1256120Y778902D01*
X1256110Y778863D01*
X1256093Y778827D01*
X1256071Y778710D01*
X1256041Y778595D01*
X1256037Y778534D01*
X1256033Y778514D01*
X1256035Y778494D01*
X1256031Y778434D01*
X1256031Y77469D01*
X1193800Y77469D01*
X1193682Y77454D01*
X1193563Y77447D01*
X1193525Y77434D01*
X1193484Y77429D01*
X1193374Y77386D01*
X1193261Y77349D01*
X1193226Y77327D01*
X1193189Y77312D01*
X1193093Y77243D01*
X1192992Y77179D01*
X1192964Y77149D01*
X1192931Y77126D01*
X1192856Y77034D01*
X1192774Y76947D01*
X1192754Y76912D01*
X1192729Y76881D01*
X1192678Y76773D01*
X1192620Y76669D01*
X1192610Y76629D01*
X1192593Y76593D01*
X1192571Y76476D01*
X1192541Y76361D01*
X1192537Y76301D01*
X1192533Y76281D01*
X1192535Y76260D01*
X1192531Y76200D01*
X1192531Y13969D01*
X64769Y13969D01*
X64769Y63500D01*
X64754Y63618D01*
X64747Y63737D01*
X64734Y63775D01*
X64729Y63816D01*
X64686Y63926D01*
X64649Y64039D01*
X64627Y64074D01*
X64612Y64111D01*
X64543Y64207D01*
X64479Y64308D01*
X64449Y64336D01*
X64426Y64369D01*
X64334Y64445D01*
X64247Y64526D01*
X64212Y64546D01*
X64181Y64571D01*
X64073Y64622D01*
X63969Y64680D01*
X63929Y64690D01*
X63893Y64707D01*
X63776Y64729D01*
X63661Y64759D01*
X63601Y64763D01*
X63581Y64767D01*
X63560Y64765D01*
X63500Y64769D01*
X13969Y64769D01*
X13969Y824231D01*
X63500Y824231D01*
G37*
%LPD*%
%LPC*%
G36*
X34289Y859789D02*
X34289Y859789D01*
X34289Y881886D01*
X35905Y881704D01*
X38617Y881085D01*
X41242Y880167D01*
X43749Y878960D01*
X46104Y877480D01*
X48279Y875745D01*
X50245Y873779D01*
X51980Y871604D01*
X53460Y869249D01*
X54667Y866742D01*
X55585Y864117D01*
X56204Y861405D01*
X56386Y859789D01*
X34289Y859789D01*
G37*
%LPD*%
%LPC*%
G36*
X1240789Y853439D02*
X1240789Y853439D01*
X1240789Y875536D01*
X1242405Y875354D01*
X1245117Y874735D01*
X1247742Y873817D01*
X1250249Y872610D01*
X1252604Y871130D01*
X1254779Y869395D01*
X1256745Y867429D01*
X1258480Y865254D01*
X1259960Y862899D01*
X1261167Y860392D01*
X1262085Y857767D01*
X1262704Y855055D01*
X1262886Y853439D01*
X1240789Y853439D01*
G37*
%LPD*%
%LPC*%
G36*
X1234439Y40639D02*
X1234439Y40639D01*
X1234439Y62736D01*
X1236055Y62554D01*
X1238767Y61935D01*
X1241392Y61017D01*
X1243899Y59810D01*
X1246254Y58330D01*
X1248429Y56595D01*
X1250395Y54629D01*
X1252130Y52454D01*
X1253610Y50099D01*
X1254817Y47592D01*
X1255735Y44967D01*
X1256354Y42255D01*
X1256536Y40639D01*
X1234439Y40639D01*
G37*
%LPD*%
%LPC*%
G36*
X34289Y34289D02*
X34289Y34289D01*
X34289Y56386D01*
X35905Y56204D01*
X38617Y55585D01*
X41242Y54667D01*
X43749Y53460D01*
X46104Y51980D01*
X48279Y50245D01*
X50245Y48279D01*
X51980Y46104D01*
X53460Y43749D01*
X54667Y41242D01*
X55585Y38617D01*
X56204Y35905D01*
X56386Y34289D01*
X34289Y34289D01*
G37*
%LPD*%
%LPC*%
G36*
X7114Y859789D02*
X7114Y859789D01*
X7296Y861405D01*
X7915Y864117D01*
X8833Y866742D01*
X10040Y869249D01*
X11520Y871604D01*
X13255Y873779D01*
X15221Y875745D01*
X17396Y877480D01*
X19751Y878960D01*
X22258Y880167D01*
X24883Y881085D01*
X27595Y881704D01*
X29211Y881886D01*
X29211Y859789D01*
X7114Y859789D01*
G37*
%LPD*%
%LPC*%
G36*
X1213614Y853439D02*
X1213614Y853439D01*
X1213796Y855055D01*
X1214415Y857767D01*
X1215333Y860392D01*
X1216540Y862899D01*
X1218020Y865254D01*
X1219755Y867429D01*
X1221721Y869395D01*
X1223896Y871130D01*
X1226251Y872610D01*
X1228758Y873817D01*
X1231383Y874735D01*
X1234095Y875354D01*
X1235711Y875536D01*
X1235711Y853439D01*
X1213614Y853439D01*
G37*
%LPD*%
%LPC*%
G36*
X34289Y854711D02*
X34289Y854711D01*
X56386Y854711D01*
X56204Y853095D01*
X55585Y850383D01*
X54667Y847758D01*
X53460Y845251D01*
X51980Y842896D01*
X50245Y840721D01*
X48279Y838755D01*
X46104Y837020D01*
X43749Y835540D01*
X41242Y834333D01*
X38617Y833415D01*
X35905Y832796D01*
X34289Y832614D01*
X34289Y854711D01*
G37*
%LPD*%
%LPC*%
G36*
X1240789Y848361D02*
X1240789Y848361D01*
X1262886Y848361D01*
X1262704Y846745D01*
X1262085Y844033D01*
X1261167Y841408D01*
X1259960Y838901D01*
X1258480Y836546D01*
X1256745Y834371D01*
X1254779Y832405D01*
X1252604Y830670D01*
X1250249Y829190D01*
X1247742Y827983D01*
X1245117Y827065D01*
X1242405Y826446D01*
X1240789Y826264D01*
X1240789Y848361D01*
G37*
%LPD*%
%LPC*%
G36*
X1207264Y40639D02*
X1207264Y40639D01*
X1207446Y42255D01*
X1208065Y44967D01*
X1208983Y47592D01*
X1210190Y50099D01*
X1211670Y52454D01*
X1213405Y54629D01*
X1215371Y56595D01*
X1217546Y58330D01*
X1219901Y59810D01*
X1222408Y61017D01*
X1225033Y61935D01*
X1227745Y62554D01*
X1229361Y62736D01*
X1229361Y40639D01*
X1207264Y40639D01*
G37*
%LPD*%
%LPC*%
G36*
X7114Y34289D02*
X7114Y34289D01*
X7296Y35905D01*
X7915Y38617D01*
X8833Y41242D01*
X10040Y43749D01*
X11520Y46104D01*
X13255Y48279D01*
X15221Y50245D01*
X17396Y51980D01*
X19751Y53460D01*
X22258Y54667D01*
X24883Y55585D01*
X27595Y56204D01*
X29211Y56386D01*
X29211Y34289D01*
X7114Y34289D01*
G37*
%LPD*%
%LPC*%
G36*
X1234439Y35561D02*
X1234439Y35561D01*
X1256536Y35561D01*
X1256354Y33945D01*
X1255735Y31233D01*
X1254817Y28608D01*
X1253610Y26101D01*
X1252130Y23746D01*
X1250395Y21571D01*
X1248429Y19605D01*
X1246254Y17870D01*
X1243899Y16390D01*
X1241392Y15183D01*
X1238767Y14265D01*
X1236055Y13646D01*
X1234439Y13464D01*
X1234439Y35561D01*
G37*
%LPD*%
%LPC*%
G36*
X34289Y29211D02*
X34289Y29211D01*
X56386Y29211D01*
X56204Y27595D01*
X55585Y24883D01*
X54667Y22258D01*
X53460Y19751D01*
X51980Y17396D01*
X50245Y15221D01*
X48279Y13255D01*
X46104Y11520D01*
X43749Y10040D01*
X41242Y8833D01*
X38617Y7915D01*
X35905Y7296D01*
X34289Y7114D01*
X34289Y29211D01*
G37*
%LPD*%
%LPC*%
G36*
X27595Y832796D02*
X27595Y832796D01*
X24883Y833415D01*
X22258Y834333D01*
X19751Y835540D01*
X17396Y837020D01*
X15221Y838755D01*
X13255Y840721D01*
X11520Y842896D01*
X10040Y845251D01*
X8833Y847758D01*
X7915Y850383D01*
X7296Y853095D01*
X7114Y854711D01*
X29211Y854711D01*
X29211Y832614D01*
X27595Y832796D01*
G37*
%LPD*%
%LPC*%
G36*
X1234095Y826446D02*
X1234095Y826446D01*
X1231383Y827065D01*
X1228758Y827983D01*
X1226251Y829190D01*
X1223896Y830670D01*
X1221721Y832405D01*
X1219755Y834371D01*
X1218020Y836546D01*
X1216540Y838901D01*
X1215333Y841408D01*
X1214415Y844033D01*
X1213796Y846745D01*
X1213614Y848361D01*
X1235711Y848361D01*
X1235711Y826264D01*
X1234095Y826446D01*
G37*
%LPD*%
%LPC*%
G36*
X1227745Y13646D02*
X1227745Y13646D01*
X1225033Y14265D01*
X1222408Y15183D01*
X1219901Y16390D01*
X1217546Y17870D01*
X1215371Y19605D01*
X1213405Y21571D01*
X1211670Y23746D01*
X1210190Y26101D01*
X1208983Y28608D01*
X1208065Y31233D01*
X1207446Y33945D01*
X1207264Y35561D01*
X1229361Y35561D01*
X1229361Y13464D01*
X1227745Y13646D01*
G37*
%LPD*%
%LPC*%
G36*
X27595Y7296D02*
X27595Y7296D01*
X24883Y7915D01*
X22258Y8833D01*
X19751Y10040D01*
X17396Y11520D01*
X15221Y13255D01*
X13255Y15221D01*
X11520Y17396D01*
X10040Y19751D01*
X8833Y22258D01*
X7915Y24883D01*
X7296Y27595D01*
X7114Y29211D01*
X29211Y29211D01*
X29211Y7114D01*
X27595Y7296D01*
G37*
%LPD*%
%LPC*%
G36*
X31749Y857249D02*
X31749Y857249D01*
X31749Y857251D01*
X31751Y857251D01*
X31751Y857249D01*
X31749Y857249D01*
G37*
%LPD*%
%LPC*%
G36*
X1238249Y850899D02*
X1238249Y850899D01*
X1238249Y850901D01*
X1238251Y850901D01*
X1238251Y850899D01*
X1238249Y850899D01*
G37*
%LPD*%
%LPC*%
G36*
X1231899Y38099D02*
X1231899Y38099D01*
X1231899Y38101D01*
X1231901Y38101D01*
X1231901Y38099D01*
X1231899Y38099D01*
G37*
%LPD*%
%LPC*%
G36*
X31749Y31749D02*
X31749Y31749D01*
X31749Y31751D01*
X31751Y31751D01*
X31751Y31749D01*
X31749Y31749D01*
G37*
%LPD*%
D10*
X361950Y758190D03*
D11*
X386950Y758190D03*
X406950Y758190D03*
X431950Y758190D03*
D12*
X331250Y785290D03*
X462650Y785290D03*
D13*
X38100Y101600D03*
X1244600Y101600D03*
X1244600Y749300D03*
D14*
X31750Y857250D03*
D15*
X385490Y687330D03*
D16*
X385490Y661930D03*
X410890Y687330D03*
X410890Y661930D03*
X436290Y687330D03*
X436290Y661930D03*
X461690Y687330D03*
X461690Y661930D03*
X487090Y687330D03*
X487090Y661930D03*
X512490Y687330D03*
X512490Y661930D03*
X537890Y687330D03*
X537890Y661930D03*
X563290Y687330D03*
X563290Y661930D03*
X588690Y687330D03*
X588690Y661930D03*
X614090Y687330D03*
X614090Y661930D03*
X639490Y687330D03*
X639490Y661930D03*
X664890Y687330D03*
X664890Y661930D03*
X690290Y687330D03*
X690290Y661930D03*
X715690Y687330D03*
X715690Y661930D03*
X741090Y687330D03*
X741090Y661930D03*
X766490Y687330D03*
X766490Y661930D03*
X791890Y687330D03*
X791890Y661930D03*
X817290Y687330D03*
X817290Y661930D03*
D15*
X385490Y433330D03*
D16*
X385490Y407930D03*
X410890Y433330D03*
X410890Y407930D03*
X436290Y433330D03*
X436290Y407930D03*
X461690Y433330D03*
X461690Y407930D03*
X487090Y433330D03*
X487090Y407930D03*
X512490Y433330D03*
X512490Y407930D03*
X537890Y433330D03*
X537890Y407930D03*
X563290Y433330D03*
X563290Y407930D03*
X588690Y433330D03*
X588690Y407930D03*
X614090Y433330D03*
X614090Y407930D03*
X639490Y433330D03*
X639490Y407930D03*
X664890Y433330D03*
X664890Y407930D03*
X690290Y433330D03*
X690290Y407930D03*
X715690Y433330D03*
X715690Y407930D03*
X741090Y433330D03*
X741090Y407930D03*
X766490Y433330D03*
X766490Y407930D03*
X791890Y433330D03*
X791890Y407930D03*
X817290Y433330D03*
X817290Y407930D03*
D17*
X214900Y679050D03*
X214900Y629050D03*
X89900Y629050D03*
X89900Y679050D03*
D18*
X63500Y646049D03*
X63500Y662051D03*
D17*
X919750Y139300D03*
X919750Y89300D03*
X794750Y89300D03*
X794750Y139300D03*
X214900Y469500D03*
X214900Y419500D03*
X89900Y419500D03*
X89900Y469500D03*
X1186450Y139300D03*
X1186450Y89300D03*
X1061450Y89300D03*
X1061450Y139300D03*
D18*
X63500Y436499D03*
X63500Y452501D03*
D19*
X750951Y127000D03*
X734949Y127000D03*
X1017651Y127000D03*
X1001649Y127000D03*
D14*
X31750Y31750D03*
X1231900Y38100D03*
X1238250Y850900D03*
D19*
X1252601Y787400D03*
X1236599Y787400D03*
D20*
X241300Y857250D03*
X241300Y831850D03*
X241300Y806450D03*
X241300Y781050D03*
X241300Y755650D03*
X241300Y730250D03*
X241300Y704850D03*
X241300Y679450D03*
X241300Y654050D03*
X241300Y628650D03*
X241300Y603250D03*
X241300Y577850D03*
X241300Y552450D03*
X241300Y527050D03*
X241300Y501650D03*
X241300Y476250D03*
X241300Y450850D03*
X241300Y425450D03*
X241300Y400050D03*
X241300Y374650D03*
X901700Y857250D03*
X901700Y831850D03*
X901700Y806450D03*
X901700Y781050D03*
X901700Y755650D03*
X901700Y730250D03*
X901700Y704850D03*
X901700Y679450D03*
X901700Y654050D03*
X901700Y628650D03*
X901700Y603250D03*
X901700Y577850D03*
X901700Y552450D03*
X901700Y527050D03*
X901700Y501650D03*
X901700Y476250D03*
X901700Y450850D03*
X901700Y425450D03*
X901700Y400050D03*
X901700Y374650D03*
D21*
X1224280Y787400D02*
X1236599Y787400D01*
D22*
X1224280Y787400D03*
X563880Y863600D03*
D21*
X498520Y675900D02*
X512490Y661930D01*
X498520Y675900D02*
X498520Y692065D01*
X460335Y730250D02*
X241300Y730250D01*
X460335Y730250D02*
X498520Y692065D01*
X436290Y661930D02*
X422320Y675900D01*
X422320Y692065D01*
X409535Y704850D02*
X241300Y704850D01*
X409535Y704850D02*
X422320Y692065D01*
X377610Y654050D02*
X241300Y654050D01*
X377610Y654050D02*
X385490Y661930D01*
X372742Y679450D02*
X241300Y679450D01*
X396920Y675900D02*
X410890Y661930D01*
X376292Y675900D02*
X372742Y679450D01*
X376292Y675900D02*
X396920Y675900D01*
X794750Y139300D02*
X919750Y139300D01*
X763251Y139300D02*
X750951Y127000D01*
X763251Y139300D02*
X794750Y139300D01*
X681660Y162560D02*
X436290Y407930D01*
X681660Y162560D02*
X784860Y162560D01*
X794750Y152670D01*
X794750Y139300D01*
X385490Y407930D02*
X326460Y466960D01*
X217440Y466960D01*
X214900Y469500D01*
X89900Y469500D01*
X89900Y462899D01*
X63500Y436499D01*
X214900Y658860D02*
X214900Y679050D01*
X89900Y679050D01*
X78740Y667890D01*
X78740Y657860D01*
X66929Y646049D01*
X63500Y646049D01*
X399460Y438065D02*
X399460Y428596D01*
X410890Y417166D02*
X410890Y407930D01*
X410890Y417166D02*
X399460Y428596D01*
X399460Y438065D02*
X410890Y449495D01*
X236776Y636984D02*
X214900Y658860D01*
X236776Y636984D02*
X247402Y636984D01*
X410890Y473496D01*
X410890Y449495D01*
X1061450Y139300D02*
X1186450Y139300D01*
X1061450Y139300D02*
X1049150Y127000D01*
X1018540Y127000D01*
X1017651Y127000D01*
X663880Y205740D02*
X461690Y407930D01*
X663880Y205740D02*
X970280Y205740D01*
X1018540Y157480D01*
X1018540Y127000D01*
X63500Y452501D02*
X63500Y464820D01*
D22*
X63500Y464820D03*
D21*
X63500Y662051D02*
X63500Y673100D01*
D22*
X63500Y673100D03*
D21*
X723900Y127000D02*
X734949Y127000D01*
D22*
X723900Y127000D03*
D21*
X990600Y127000D02*
X1001649Y127000D01*
D22*
X990600Y127000D03*
D21*
X31750Y857250D02*
X29210Y854710D01*
X29210Y34290D01*
X31750Y31750D01*
X71120Y817880D02*
X31750Y857250D01*
X298660Y817880D02*
X331250Y785290D01*
X298660Y817880D02*
X71120Y817880D01*
X1238250Y850900D02*
X1252601Y836549D01*
X1252601Y787400D01*
X1252601Y758804D01*
X1256978Y754427D01*
X1256978Y63178D01*
X1231900Y38100D01*
M02*
