G04 EAGLE Gerber RS-274X export*
G75*
%MOMM*%
%FSLAX34Y34*%
%LPD*%
%INCopper Layer 15*%
%IPPOS*%
%AMOC8*
5,1,8,0,0,1.08239X$1,22.5*%
G01*
%ADD10C,1.288000*%
%ADD11C,3.220000*%
%ADD12C,4.191000*%
%ADD13C,1.244600*%
%ADD14C,1.960000*%
%ADD15C,0.904800*%
%ADD16C,0.609600*%

G36*
X1266718Y2544D02*
X1266718Y2544D01*
X1266737Y2542D01*
X1266839Y2564D01*
X1266941Y2580D01*
X1266958Y2590D01*
X1266978Y2594D01*
X1267067Y2647D01*
X1267158Y2696D01*
X1267172Y2710D01*
X1267189Y2720D01*
X1267256Y2799D01*
X1267328Y2874D01*
X1267336Y2892D01*
X1267349Y2907D01*
X1267388Y3003D01*
X1267431Y3097D01*
X1267433Y3117D01*
X1267441Y3135D01*
X1267459Y3302D01*
X1267459Y885698D01*
X1267456Y885718D01*
X1267458Y885737D01*
X1267436Y885839D01*
X1267420Y885941D01*
X1267410Y885958D01*
X1267406Y885978D01*
X1267353Y886067D01*
X1267304Y886158D01*
X1267290Y886172D01*
X1267280Y886189D01*
X1267201Y886256D01*
X1267126Y886328D01*
X1267108Y886336D01*
X1267093Y886349D01*
X1266997Y886388D01*
X1266903Y886431D01*
X1266883Y886433D01*
X1266865Y886441D01*
X1266698Y886459D01*
X3302Y886459D01*
X3282Y886456D01*
X3263Y886458D01*
X3161Y886436D01*
X3059Y886420D01*
X3042Y886410D01*
X3022Y886406D01*
X2933Y886353D01*
X2842Y886304D01*
X2828Y886290D01*
X2811Y886280D01*
X2744Y886201D01*
X2672Y886126D01*
X2664Y886108D01*
X2651Y886093D01*
X2612Y885997D01*
X2569Y885903D01*
X2567Y885883D01*
X2559Y885865D01*
X2541Y885698D01*
X2541Y3302D01*
X2544Y3282D01*
X2542Y3263D01*
X2564Y3161D01*
X2580Y3059D01*
X2590Y3042D01*
X2594Y3022D01*
X2647Y2933D01*
X2696Y2842D01*
X2710Y2828D01*
X2720Y2811D01*
X2799Y2744D01*
X2874Y2672D01*
X2892Y2664D01*
X2907Y2651D01*
X3003Y2612D01*
X3097Y2569D01*
X3117Y2567D01*
X3135Y2559D01*
X3302Y2541D01*
X1266698Y2541D01*
X1266718Y2544D01*
G37*
%LPC*%
G36*
X27076Y833754D02*
X27076Y833754D01*
X18441Y837331D01*
X11831Y843941D01*
X8254Y852576D01*
X8254Y861924D01*
X11831Y870559D01*
X18441Y877169D01*
X27076Y880746D01*
X36424Y880746D01*
X45059Y877169D01*
X51669Y870559D01*
X55246Y861924D01*
X55246Y852576D01*
X51669Y843941D01*
X45059Y837331D01*
X36424Y833754D01*
X27076Y833754D01*
G37*
%LPD*%
%LPC*%
G36*
X1233576Y827404D02*
X1233576Y827404D01*
X1224941Y830981D01*
X1218331Y837591D01*
X1214754Y846226D01*
X1214754Y855574D01*
X1218331Y864209D01*
X1224941Y870819D01*
X1233576Y874396D01*
X1242924Y874396D01*
X1251559Y870819D01*
X1258169Y864209D01*
X1261746Y855574D01*
X1261746Y846226D01*
X1258169Y837591D01*
X1251559Y830981D01*
X1242924Y827404D01*
X1233576Y827404D01*
G37*
%LPD*%
%LPC*%
G36*
X27076Y8254D02*
X27076Y8254D01*
X18441Y11831D01*
X11831Y18441D01*
X8254Y27076D01*
X8254Y36424D01*
X11831Y45059D01*
X18441Y51669D01*
X27076Y55246D01*
X36424Y55246D01*
X45059Y51669D01*
X51669Y45059D01*
X55246Y36424D01*
X55246Y27076D01*
X51669Y18441D01*
X45059Y11831D01*
X36424Y8254D01*
X27076Y8254D01*
G37*
%LPD*%
%LPC*%
G36*
X1227226Y14604D02*
X1227226Y14604D01*
X1218591Y18181D01*
X1211981Y24791D01*
X1208404Y33426D01*
X1208404Y42774D01*
X1211981Y51409D01*
X1218591Y58019D01*
X1227226Y61596D01*
X1236574Y61596D01*
X1245209Y58019D01*
X1251819Y51409D01*
X1255396Y42774D01*
X1255396Y33426D01*
X1251819Y24791D01*
X1245209Y18181D01*
X1236574Y14604D01*
X1227226Y14604D01*
G37*
%LPD*%
%LPC*%
G36*
X458942Y766649D02*
X458942Y766649D01*
X452091Y769487D01*
X446847Y774731D01*
X444009Y781582D01*
X444009Y788998D01*
X446847Y795849D01*
X452091Y801093D01*
X458942Y803931D01*
X466358Y803931D01*
X473209Y801093D01*
X478453Y795849D01*
X481291Y788998D01*
X481291Y781582D01*
X478453Y774731D01*
X473209Y769487D01*
X466358Y766649D01*
X458942Y766649D01*
G37*
%LPD*%
%LPC*%
G36*
X327542Y766649D02*
X327542Y766649D01*
X320691Y769487D01*
X315447Y774731D01*
X312609Y781582D01*
X312609Y788998D01*
X315447Y795849D01*
X320691Y801093D01*
X327542Y803931D01*
X334958Y803931D01*
X341809Y801093D01*
X347053Y795849D01*
X349891Y788998D01*
X349891Y781582D01*
X347053Y774731D01*
X341809Y769487D01*
X334958Y766649D01*
X327542Y766649D01*
G37*
%LPD*%
%LPC*%
G36*
X792295Y126959D02*
X792295Y126959D01*
X787760Y128838D01*
X784288Y132310D01*
X782409Y136845D01*
X782409Y141755D01*
X784288Y146290D01*
X787760Y149762D01*
X792295Y151641D01*
X797205Y151641D01*
X801740Y149762D01*
X805212Y146290D01*
X807091Y141755D01*
X807091Y136845D01*
X805212Y132310D01*
X801740Y128838D01*
X797205Y126959D01*
X792295Y126959D01*
G37*
%LPD*%
%LPC*%
G36*
X1183995Y126959D02*
X1183995Y126959D01*
X1179460Y128838D01*
X1175988Y132310D01*
X1174109Y136845D01*
X1174109Y141755D01*
X1175988Y146290D01*
X1179460Y149762D01*
X1183995Y151641D01*
X1188905Y151641D01*
X1193440Y149762D01*
X1196912Y146290D01*
X1198791Y141755D01*
X1198791Y136845D01*
X1196912Y132310D01*
X1193440Y128838D01*
X1188905Y126959D01*
X1183995Y126959D01*
G37*
%LPD*%
%LPC*%
G36*
X87445Y407159D02*
X87445Y407159D01*
X82910Y409038D01*
X79438Y412510D01*
X77559Y417045D01*
X77559Y421955D01*
X79438Y426490D01*
X82910Y429962D01*
X87445Y431841D01*
X92355Y431841D01*
X96890Y429962D01*
X100362Y426490D01*
X102241Y421955D01*
X102241Y417045D01*
X100362Y412510D01*
X96890Y409038D01*
X92355Y407159D01*
X87445Y407159D01*
G37*
%LPD*%
%LPC*%
G36*
X212445Y407159D02*
X212445Y407159D01*
X207910Y409038D01*
X204438Y412510D01*
X202559Y417045D01*
X202559Y421955D01*
X204438Y426490D01*
X207910Y429962D01*
X212445Y431841D01*
X217355Y431841D01*
X221890Y429962D01*
X225362Y426490D01*
X227241Y421955D01*
X227241Y417045D01*
X225362Y412510D01*
X221890Y409038D01*
X217355Y407159D01*
X212445Y407159D01*
G37*
%LPD*%
%LPC*%
G36*
X212445Y616709D02*
X212445Y616709D01*
X207910Y618588D01*
X204438Y622060D01*
X202559Y626595D01*
X202559Y631505D01*
X204438Y636040D01*
X207910Y639512D01*
X212445Y641391D01*
X217355Y641391D01*
X221890Y639512D01*
X225362Y636040D01*
X227241Y631505D01*
X227241Y626595D01*
X225362Y622060D01*
X221890Y618588D01*
X217355Y616709D01*
X212445Y616709D01*
G37*
%LPD*%
%LPC*%
G36*
X87445Y457159D02*
X87445Y457159D01*
X82910Y459038D01*
X79438Y462510D01*
X77559Y467045D01*
X77559Y471955D01*
X79438Y476490D01*
X82910Y479962D01*
X87445Y481841D01*
X92355Y481841D01*
X96890Y479962D01*
X100362Y476490D01*
X102241Y471955D01*
X102241Y467045D01*
X100362Y462510D01*
X96890Y459038D01*
X92355Y457159D01*
X87445Y457159D01*
G37*
%LPD*%
%LPC*%
G36*
X212445Y666709D02*
X212445Y666709D01*
X207910Y668588D01*
X204438Y672060D01*
X202559Y676595D01*
X202559Y681505D01*
X204438Y686040D01*
X207910Y689512D01*
X212445Y691391D01*
X217355Y691391D01*
X221890Y689512D01*
X225362Y686040D01*
X227241Y681505D01*
X227241Y676595D01*
X225362Y672060D01*
X221890Y668588D01*
X217355Y666709D01*
X212445Y666709D01*
G37*
%LPD*%
%LPC*%
G36*
X87445Y666709D02*
X87445Y666709D01*
X82910Y668588D01*
X79438Y672060D01*
X77559Y676595D01*
X77559Y681505D01*
X79438Y686040D01*
X82910Y689512D01*
X87445Y691391D01*
X92355Y691391D01*
X96890Y689512D01*
X100362Y686040D01*
X102241Y681505D01*
X102241Y676595D01*
X100362Y672060D01*
X96890Y668588D01*
X92355Y666709D01*
X87445Y666709D01*
G37*
%LPD*%
%LPC*%
G36*
X917295Y126959D02*
X917295Y126959D01*
X912760Y128838D01*
X909288Y132310D01*
X907409Y136845D01*
X907409Y141755D01*
X909288Y146290D01*
X912760Y149762D01*
X917295Y151641D01*
X922205Y151641D01*
X926740Y149762D01*
X930212Y146290D01*
X932091Y141755D01*
X932091Y136845D01*
X930212Y132310D01*
X926740Y128838D01*
X922205Y126959D01*
X917295Y126959D01*
G37*
%LPD*%
%LPC*%
G36*
X1058995Y126959D02*
X1058995Y126959D01*
X1054460Y128838D01*
X1050988Y132310D01*
X1049109Y136845D01*
X1049109Y141755D01*
X1050988Y146290D01*
X1054460Y149762D01*
X1058995Y151641D01*
X1063905Y151641D01*
X1068440Y149762D01*
X1071912Y146290D01*
X1073791Y141755D01*
X1073791Y136845D01*
X1071912Y132310D01*
X1068440Y128838D01*
X1063905Y126959D01*
X1058995Y126959D01*
G37*
%LPD*%
%LPC*%
G36*
X212445Y457159D02*
X212445Y457159D01*
X207910Y459038D01*
X204438Y462510D01*
X202559Y467045D01*
X202559Y471955D01*
X204438Y476490D01*
X207910Y479962D01*
X212445Y481841D01*
X217355Y481841D01*
X221890Y479962D01*
X225362Y476490D01*
X227241Y471955D01*
X227241Y467045D01*
X225362Y462510D01*
X221890Y459038D01*
X217355Y457159D01*
X212445Y457159D01*
G37*
%LPD*%
%LPC*%
G36*
X87445Y616709D02*
X87445Y616709D01*
X82910Y618588D01*
X79438Y622060D01*
X77559Y626595D01*
X77559Y631505D01*
X79438Y636040D01*
X82910Y639512D01*
X87445Y641391D01*
X92355Y641391D01*
X96890Y639512D01*
X100362Y636040D01*
X102241Y631505D01*
X102241Y626595D01*
X100362Y622060D01*
X96890Y618588D01*
X92355Y616709D01*
X87445Y616709D01*
G37*
%LPD*%
%LPC*%
G36*
X792295Y76959D02*
X792295Y76959D01*
X787760Y78838D01*
X784288Y82310D01*
X782409Y86845D01*
X782409Y91755D01*
X784288Y96290D01*
X787760Y99762D01*
X792295Y101641D01*
X797205Y101641D01*
X801740Y99762D01*
X805212Y96290D01*
X807091Y91755D01*
X807091Y86845D01*
X805212Y82310D01*
X801740Y78838D01*
X797205Y76959D01*
X792295Y76959D01*
G37*
%LPD*%
%LPC*%
G36*
X917295Y76959D02*
X917295Y76959D01*
X912760Y78838D01*
X909288Y82310D01*
X907409Y86845D01*
X907409Y91755D01*
X909288Y96290D01*
X912760Y99762D01*
X917295Y101641D01*
X922205Y101641D01*
X926740Y99762D01*
X930212Y96290D01*
X932091Y91755D01*
X932091Y86845D01*
X930212Y82310D01*
X926740Y78838D01*
X922205Y76959D01*
X917295Y76959D01*
G37*
%LPD*%
%LPC*%
G36*
X1058995Y76959D02*
X1058995Y76959D01*
X1054460Y78838D01*
X1050988Y82310D01*
X1049109Y86845D01*
X1049109Y91755D01*
X1050988Y96290D01*
X1054460Y99762D01*
X1058995Y101641D01*
X1063905Y101641D01*
X1068440Y99762D01*
X1071912Y96290D01*
X1073791Y91755D01*
X1073791Y86845D01*
X1071912Y82310D01*
X1068440Y78838D01*
X1063905Y76959D01*
X1058995Y76959D01*
G37*
%LPD*%
%LPC*%
G36*
X1183995Y76959D02*
X1183995Y76959D01*
X1179460Y78838D01*
X1175988Y82310D01*
X1174109Y86845D01*
X1174109Y91755D01*
X1175988Y96290D01*
X1179460Y99762D01*
X1183995Y101641D01*
X1188905Y101641D01*
X1193440Y99762D01*
X1196912Y96290D01*
X1198791Y91755D01*
X1198791Y86845D01*
X1196912Y82310D01*
X1193440Y78838D01*
X1188905Y76959D01*
X1183995Y76959D01*
G37*
%LPD*%
%LPC*%
G36*
X430164Y749209D02*
X430164Y749209D01*
X426863Y750577D01*
X424337Y753103D01*
X422969Y756404D01*
X422969Y759976D01*
X424337Y763277D01*
X426863Y765803D01*
X430164Y767171D01*
X433736Y767171D01*
X437037Y765803D01*
X439563Y763277D01*
X440931Y759976D01*
X440931Y756404D01*
X439563Y753103D01*
X437037Y750577D01*
X433736Y749209D01*
X430164Y749209D01*
G37*
%LPD*%
%LPC*%
G36*
X405164Y749209D02*
X405164Y749209D01*
X401863Y750577D01*
X399337Y753103D01*
X397969Y756404D01*
X397969Y759976D01*
X399337Y763277D01*
X401863Y765803D01*
X405164Y767171D01*
X408736Y767171D01*
X412037Y765803D01*
X414563Y763277D01*
X415931Y759976D01*
X415931Y756404D01*
X414563Y753103D01*
X412037Y750577D01*
X408736Y749209D01*
X405164Y749209D01*
G37*
%LPD*%
%LPC*%
G36*
X385164Y749209D02*
X385164Y749209D01*
X381863Y750577D01*
X379337Y753103D01*
X377969Y756404D01*
X377969Y759976D01*
X379337Y763277D01*
X381863Y765803D01*
X385164Y767171D01*
X388736Y767171D01*
X392037Y765803D01*
X394563Y763277D01*
X395931Y759976D01*
X395931Y756404D01*
X394563Y753103D01*
X392037Y750577D01*
X388736Y749209D01*
X385164Y749209D01*
G37*
%LPD*%
%LPC*%
G36*
X360164Y749209D02*
X360164Y749209D01*
X356863Y750577D01*
X354337Y753103D01*
X352969Y756404D01*
X352969Y759976D01*
X354337Y763277D01*
X356863Y765803D01*
X360164Y767171D01*
X363736Y767171D01*
X367037Y765803D01*
X369563Y763277D01*
X370931Y759976D01*
X370931Y756404D01*
X369563Y753103D01*
X367037Y750577D01*
X363736Y749209D01*
X360164Y749209D01*
G37*
%LPD*%
%LPC*%
G36*
X713947Y399166D02*
X713947Y399166D01*
X710726Y400500D01*
X708260Y402966D01*
X706926Y406187D01*
X706926Y409673D01*
X708260Y412894D01*
X710726Y415360D01*
X713947Y416694D01*
X717433Y416694D01*
X720654Y415360D01*
X723120Y412894D01*
X724454Y409673D01*
X724454Y406187D01*
X723120Y402966D01*
X720654Y400500D01*
X717433Y399166D01*
X713947Y399166D01*
G37*
%LPD*%
%LPC*%
G36*
X688547Y399166D02*
X688547Y399166D01*
X685326Y400500D01*
X682860Y402966D01*
X681526Y406187D01*
X681526Y409673D01*
X682860Y412894D01*
X685326Y415360D01*
X688547Y416694D01*
X692033Y416694D01*
X695254Y415360D01*
X697720Y412894D01*
X699054Y409673D01*
X699054Y406187D01*
X697720Y402966D01*
X695254Y400500D01*
X692033Y399166D01*
X688547Y399166D01*
G37*
%LPD*%
%LPC*%
G36*
X663147Y399166D02*
X663147Y399166D01*
X659926Y400500D01*
X657460Y402966D01*
X656126Y406187D01*
X656126Y409673D01*
X657460Y412894D01*
X659926Y415360D01*
X663147Y416694D01*
X666633Y416694D01*
X669854Y415360D01*
X672320Y412894D01*
X673654Y409673D01*
X673654Y406187D01*
X672320Y402966D01*
X669854Y400500D01*
X666633Y399166D01*
X663147Y399166D01*
G37*
%LPD*%
%LPC*%
G36*
X637747Y399166D02*
X637747Y399166D01*
X634526Y400500D01*
X632060Y402966D01*
X630726Y406187D01*
X630726Y409673D01*
X632060Y412894D01*
X634526Y415360D01*
X637747Y416694D01*
X641233Y416694D01*
X644454Y415360D01*
X646920Y412894D01*
X648254Y409673D01*
X648254Y406187D01*
X646920Y402966D01*
X644454Y400500D01*
X641233Y399166D01*
X637747Y399166D01*
G37*
%LPD*%
%LPC*%
G36*
X612347Y399166D02*
X612347Y399166D01*
X609126Y400500D01*
X606660Y402966D01*
X605326Y406187D01*
X605326Y409673D01*
X606660Y412894D01*
X609126Y415360D01*
X612347Y416694D01*
X615833Y416694D01*
X619054Y415360D01*
X621520Y412894D01*
X622854Y409673D01*
X622854Y406187D01*
X621520Y402966D01*
X619054Y400500D01*
X615833Y399166D01*
X612347Y399166D01*
G37*
%LPD*%
%LPC*%
G36*
X586947Y399166D02*
X586947Y399166D01*
X583726Y400500D01*
X581260Y402966D01*
X579926Y406187D01*
X579926Y409673D01*
X581260Y412894D01*
X583726Y415360D01*
X586947Y416694D01*
X590433Y416694D01*
X593654Y415360D01*
X596120Y412894D01*
X597454Y409673D01*
X597454Y406187D01*
X596120Y402966D01*
X593654Y400500D01*
X590433Y399166D01*
X586947Y399166D01*
G37*
%LPD*%
%LPC*%
G36*
X561547Y399166D02*
X561547Y399166D01*
X558326Y400500D01*
X555860Y402966D01*
X554526Y406187D01*
X554526Y409673D01*
X555860Y412894D01*
X558326Y415360D01*
X561547Y416694D01*
X565033Y416694D01*
X568254Y415360D01*
X570720Y412894D01*
X572054Y409673D01*
X572054Y406187D01*
X570720Y402966D01*
X568254Y400500D01*
X565033Y399166D01*
X561547Y399166D01*
G37*
%LPD*%
%LPC*%
G36*
X434547Y424566D02*
X434547Y424566D01*
X431326Y425900D01*
X428860Y428366D01*
X427526Y431587D01*
X427526Y435073D01*
X428860Y438294D01*
X431326Y440760D01*
X434547Y442094D01*
X438033Y442094D01*
X441254Y440760D01*
X443720Y438294D01*
X445054Y435073D01*
X445054Y431587D01*
X443720Y428366D01*
X441254Y425900D01*
X438033Y424566D01*
X434547Y424566D01*
G37*
%LPD*%
%LPC*%
G36*
X459947Y399166D02*
X459947Y399166D01*
X456726Y400500D01*
X454260Y402966D01*
X452926Y406187D01*
X452926Y409673D01*
X454260Y412894D01*
X456726Y415360D01*
X459947Y416694D01*
X463433Y416694D01*
X466654Y415360D01*
X469120Y412894D01*
X470454Y409673D01*
X470454Y406187D01*
X469120Y402966D01*
X466654Y400500D01*
X463433Y399166D01*
X459947Y399166D01*
G37*
%LPD*%
%LPC*%
G36*
X434547Y399166D02*
X434547Y399166D01*
X431326Y400500D01*
X428860Y402966D01*
X427526Y406187D01*
X427526Y409673D01*
X428860Y412894D01*
X431326Y415360D01*
X434547Y416694D01*
X438033Y416694D01*
X441254Y415360D01*
X443720Y412894D01*
X445054Y409673D01*
X445054Y406187D01*
X443720Y402966D01*
X441254Y400500D01*
X438033Y399166D01*
X434547Y399166D01*
G37*
%LPD*%
%LPC*%
G36*
X409147Y399166D02*
X409147Y399166D01*
X405926Y400500D01*
X403460Y402966D01*
X402126Y406187D01*
X402126Y409673D01*
X403460Y412894D01*
X405926Y415360D01*
X409147Y416694D01*
X412633Y416694D01*
X415854Y415360D01*
X418320Y412894D01*
X419654Y409673D01*
X419654Y406187D01*
X418320Y402966D01*
X415854Y400500D01*
X412633Y399166D01*
X409147Y399166D01*
G37*
%LPD*%
%LPC*%
G36*
X383747Y399166D02*
X383747Y399166D01*
X380526Y400500D01*
X378060Y402966D01*
X376726Y406187D01*
X376726Y409673D01*
X378060Y412894D01*
X380526Y415360D01*
X383747Y416694D01*
X387233Y416694D01*
X390454Y415360D01*
X392920Y412894D01*
X394254Y409673D01*
X394254Y406187D01*
X392920Y402966D01*
X390454Y400500D01*
X387233Y399166D01*
X383747Y399166D01*
G37*
%LPD*%
%LPC*%
G36*
X536147Y399166D02*
X536147Y399166D01*
X532926Y400500D01*
X530460Y402966D01*
X529126Y406187D01*
X529126Y409673D01*
X530460Y412894D01*
X532926Y415360D01*
X536147Y416694D01*
X539633Y416694D01*
X542854Y415360D01*
X545320Y412894D01*
X546654Y409673D01*
X546654Y406187D01*
X545320Y402966D01*
X542854Y400500D01*
X539633Y399166D01*
X536147Y399166D01*
G37*
%LPD*%
%LPC*%
G36*
X688547Y678566D02*
X688547Y678566D01*
X685326Y679900D01*
X682860Y682366D01*
X681526Y685587D01*
X681526Y689073D01*
X682860Y692294D01*
X685326Y694760D01*
X688547Y696094D01*
X692033Y696094D01*
X695254Y694760D01*
X697720Y692294D01*
X699054Y689073D01*
X699054Y685587D01*
X697720Y682366D01*
X695254Y679900D01*
X692033Y678566D01*
X688547Y678566D01*
G37*
%LPD*%
%LPC*%
G36*
X663147Y678566D02*
X663147Y678566D01*
X659926Y679900D01*
X657460Y682366D01*
X656126Y685587D01*
X656126Y689073D01*
X657460Y692294D01*
X659926Y694760D01*
X663147Y696094D01*
X666633Y696094D01*
X669854Y694760D01*
X672320Y692294D01*
X673654Y689073D01*
X673654Y685587D01*
X672320Y682366D01*
X669854Y679900D01*
X666633Y678566D01*
X663147Y678566D01*
G37*
%LPD*%
%LPC*%
G36*
X815547Y678566D02*
X815547Y678566D01*
X812326Y679900D01*
X809860Y682366D01*
X808526Y685587D01*
X808526Y689073D01*
X809860Y692294D01*
X812326Y694760D01*
X815547Y696094D01*
X819033Y696094D01*
X822254Y694760D01*
X824720Y692294D01*
X826054Y689073D01*
X826054Y685587D01*
X824720Y682366D01*
X822254Y679900D01*
X819033Y678566D01*
X815547Y678566D01*
G37*
%LPD*%
%LPC*%
G36*
X790147Y678566D02*
X790147Y678566D01*
X786926Y679900D01*
X784460Y682366D01*
X783126Y685587D01*
X783126Y689073D01*
X784460Y692294D01*
X786926Y694760D01*
X790147Y696094D01*
X793633Y696094D01*
X796854Y694760D01*
X799320Y692294D01*
X800654Y689073D01*
X800654Y685587D01*
X799320Y682366D01*
X796854Y679900D01*
X793633Y678566D01*
X790147Y678566D01*
G37*
%LPD*%
%LPC*%
G36*
X764747Y678566D02*
X764747Y678566D01*
X761526Y679900D01*
X759060Y682366D01*
X757726Y685587D01*
X757726Y689073D01*
X759060Y692294D01*
X761526Y694760D01*
X764747Y696094D01*
X768233Y696094D01*
X771454Y694760D01*
X773920Y692294D01*
X775254Y689073D01*
X775254Y685587D01*
X773920Y682366D01*
X771454Y679900D01*
X768233Y678566D01*
X764747Y678566D01*
G37*
%LPD*%
%LPC*%
G36*
X739347Y678566D02*
X739347Y678566D01*
X736126Y679900D01*
X733660Y682366D01*
X732326Y685587D01*
X732326Y689073D01*
X733660Y692294D01*
X736126Y694760D01*
X739347Y696094D01*
X742833Y696094D01*
X746054Y694760D01*
X748520Y692294D01*
X749854Y689073D01*
X749854Y685587D01*
X748520Y682366D01*
X746054Y679900D01*
X742833Y678566D01*
X739347Y678566D01*
G37*
%LPD*%
%LPC*%
G36*
X713947Y678566D02*
X713947Y678566D01*
X710726Y679900D01*
X708260Y682366D01*
X706926Y685587D01*
X706926Y689073D01*
X708260Y692294D01*
X710726Y694760D01*
X713947Y696094D01*
X717433Y696094D01*
X720654Y694760D01*
X723120Y692294D01*
X724454Y689073D01*
X724454Y685587D01*
X723120Y682366D01*
X720654Y679900D01*
X717433Y678566D01*
X713947Y678566D01*
G37*
%LPD*%
%LPC*%
G36*
X459947Y678566D02*
X459947Y678566D01*
X456726Y679900D01*
X454260Y682366D01*
X452926Y685587D01*
X452926Y689073D01*
X454260Y692294D01*
X456726Y694760D01*
X459947Y696094D01*
X463433Y696094D01*
X466654Y694760D01*
X469120Y692294D01*
X470454Y689073D01*
X470454Y685587D01*
X469120Y682366D01*
X466654Y679900D01*
X463433Y678566D01*
X459947Y678566D01*
G37*
%LPD*%
%LPC*%
G36*
X434547Y678566D02*
X434547Y678566D01*
X431326Y679900D01*
X428860Y682366D01*
X427526Y685587D01*
X427526Y689073D01*
X428860Y692294D01*
X431326Y694760D01*
X434547Y696094D01*
X438033Y696094D01*
X441254Y694760D01*
X443720Y692294D01*
X445054Y689073D01*
X445054Y685587D01*
X443720Y682366D01*
X441254Y679900D01*
X438033Y678566D01*
X434547Y678566D01*
G37*
%LPD*%
%LPC*%
G36*
X637747Y678566D02*
X637747Y678566D01*
X634526Y679900D01*
X632060Y682366D01*
X630726Y685587D01*
X630726Y689073D01*
X632060Y692294D01*
X634526Y694760D01*
X637747Y696094D01*
X641233Y696094D01*
X644454Y694760D01*
X646920Y692294D01*
X648254Y689073D01*
X648254Y685587D01*
X646920Y682366D01*
X644454Y679900D01*
X641233Y678566D01*
X637747Y678566D01*
G37*
%LPD*%
%LPC*%
G36*
X612347Y678566D02*
X612347Y678566D01*
X609126Y679900D01*
X606660Y682366D01*
X605326Y685587D01*
X605326Y689073D01*
X606660Y692294D01*
X609126Y694760D01*
X612347Y696094D01*
X615833Y696094D01*
X619054Y694760D01*
X621520Y692294D01*
X622854Y689073D01*
X622854Y685587D01*
X621520Y682366D01*
X619054Y679900D01*
X615833Y678566D01*
X612347Y678566D01*
G37*
%LPD*%
%LPC*%
G36*
X586947Y678566D02*
X586947Y678566D01*
X583726Y679900D01*
X581260Y682366D01*
X579926Y685587D01*
X579926Y689073D01*
X581260Y692294D01*
X583726Y694760D01*
X586947Y696094D01*
X590433Y696094D01*
X593654Y694760D01*
X596120Y692294D01*
X597454Y689073D01*
X597454Y685587D01*
X596120Y682366D01*
X593654Y679900D01*
X590433Y678566D01*
X586947Y678566D01*
G37*
%LPD*%
%LPC*%
G36*
X561547Y678566D02*
X561547Y678566D01*
X558326Y679900D01*
X555860Y682366D01*
X554526Y685587D01*
X554526Y689073D01*
X555860Y692294D01*
X558326Y694760D01*
X561547Y696094D01*
X565033Y696094D01*
X568254Y694760D01*
X570720Y692294D01*
X572054Y689073D01*
X572054Y685587D01*
X570720Y682366D01*
X568254Y679900D01*
X565033Y678566D01*
X561547Y678566D01*
G37*
%LPD*%
%LPC*%
G36*
X536147Y678566D02*
X536147Y678566D01*
X532926Y679900D01*
X530460Y682366D01*
X529126Y685587D01*
X529126Y689073D01*
X530460Y692294D01*
X532926Y694760D01*
X536147Y696094D01*
X539633Y696094D01*
X542854Y694760D01*
X545320Y692294D01*
X546654Y689073D01*
X546654Y685587D01*
X545320Y682366D01*
X542854Y679900D01*
X539633Y678566D01*
X536147Y678566D01*
G37*
%LPD*%
%LPC*%
G36*
X510747Y678566D02*
X510747Y678566D01*
X507526Y679900D01*
X505060Y682366D01*
X503726Y685587D01*
X503726Y689073D01*
X505060Y692294D01*
X507526Y694760D01*
X510747Y696094D01*
X514233Y696094D01*
X517454Y694760D01*
X519920Y692294D01*
X521254Y689073D01*
X521254Y685587D01*
X519920Y682366D01*
X517454Y679900D01*
X514233Y678566D01*
X510747Y678566D01*
G37*
%LPD*%
%LPC*%
G36*
X485347Y678566D02*
X485347Y678566D01*
X482126Y679900D01*
X479660Y682366D01*
X478326Y685587D01*
X478326Y689073D01*
X479660Y692294D01*
X482126Y694760D01*
X485347Y696094D01*
X488833Y696094D01*
X492054Y694760D01*
X494520Y692294D01*
X495854Y689073D01*
X495854Y685587D01*
X494520Y682366D01*
X492054Y679900D01*
X488833Y678566D01*
X485347Y678566D01*
G37*
%LPD*%
%LPC*%
G36*
X409147Y678566D02*
X409147Y678566D01*
X405926Y679900D01*
X403460Y682366D01*
X402126Y685587D01*
X402126Y689073D01*
X403460Y692294D01*
X405926Y694760D01*
X409147Y696094D01*
X412633Y696094D01*
X415854Y694760D01*
X418320Y692294D01*
X419654Y689073D01*
X419654Y685587D01*
X418320Y682366D01*
X415854Y679900D01*
X412633Y678566D01*
X409147Y678566D01*
G37*
%LPD*%
%LPC*%
G36*
X383747Y678566D02*
X383747Y678566D01*
X380526Y679900D01*
X378060Y682366D01*
X376726Y685587D01*
X376726Y689073D01*
X378060Y692294D01*
X380526Y694760D01*
X383747Y696094D01*
X387233Y696094D01*
X390454Y694760D01*
X392920Y692294D01*
X394254Y689073D01*
X394254Y685587D01*
X392920Y682366D01*
X390454Y679900D01*
X387233Y678566D01*
X383747Y678566D01*
G37*
%LPD*%
%LPC*%
G36*
X815547Y653166D02*
X815547Y653166D01*
X812326Y654500D01*
X809860Y656966D01*
X808526Y660187D01*
X808526Y663673D01*
X809860Y666894D01*
X812326Y669360D01*
X815547Y670694D01*
X819033Y670694D01*
X822254Y669360D01*
X824720Y666894D01*
X826054Y663673D01*
X826054Y660187D01*
X824720Y656966D01*
X822254Y654500D01*
X819033Y653166D01*
X815547Y653166D01*
G37*
%LPD*%
%LPC*%
G36*
X790147Y653166D02*
X790147Y653166D01*
X786926Y654500D01*
X784460Y656966D01*
X783126Y660187D01*
X783126Y663673D01*
X784460Y666894D01*
X786926Y669360D01*
X790147Y670694D01*
X793633Y670694D01*
X796854Y669360D01*
X799320Y666894D01*
X800654Y663673D01*
X800654Y660187D01*
X799320Y656966D01*
X796854Y654500D01*
X793633Y653166D01*
X790147Y653166D01*
G37*
%LPD*%
%LPC*%
G36*
X764747Y653166D02*
X764747Y653166D01*
X761526Y654500D01*
X759060Y656966D01*
X757726Y660187D01*
X757726Y663673D01*
X759060Y666894D01*
X761526Y669360D01*
X764747Y670694D01*
X768233Y670694D01*
X771454Y669360D01*
X773920Y666894D01*
X775254Y663673D01*
X775254Y660187D01*
X773920Y656966D01*
X771454Y654500D01*
X768233Y653166D01*
X764747Y653166D01*
G37*
%LPD*%
%LPC*%
G36*
X739347Y653166D02*
X739347Y653166D01*
X736126Y654500D01*
X733660Y656966D01*
X732326Y660187D01*
X732326Y663673D01*
X733660Y666894D01*
X736126Y669360D01*
X739347Y670694D01*
X742833Y670694D01*
X746054Y669360D01*
X748520Y666894D01*
X749854Y663673D01*
X749854Y660187D01*
X748520Y656966D01*
X746054Y654500D01*
X742833Y653166D01*
X739347Y653166D01*
G37*
%LPD*%
%LPC*%
G36*
X713947Y653166D02*
X713947Y653166D01*
X710726Y654500D01*
X708260Y656966D01*
X706926Y660187D01*
X706926Y663673D01*
X708260Y666894D01*
X710726Y669360D01*
X713947Y670694D01*
X717433Y670694D01*
X720654Y669360D01*
X723120Y666894D01*
X724454Y663673D01*
X724454Y660187D01*
X723120Y656966D01*
X720654Y654500D01*
X717433Y653166D01*
X713947Y653166D01*
G37*
%LPD*%
%LPC*%
G36*
X688547Y653166D02*
X688547Y653166D01*
X685326Y654500D01*
X682860Y656966D01*
X681526Y660187D01*
X681526Y663673D01*
X682860Y666894D01*
X685326Y669360D01*
X688547Y670694D01*
X692033Y670694D01*
X695254Y669360D01*
X697720Y666894D01*
X699054Y663673D01*
X699054Y660187D01*
X697720Y656966D01*
X695254Y654500D01*
X692033Y653166D01*
X688547Y653166D01*
G37*
%LPD*%
%LPC*%
G36*
X637747Y653166D02*
X637747Y653166D01*
X634526Y654500D01*
X632060Y656966D01*
X630726Y660187D01*
X630726Y663673D01*
X632060Y666894D01*
X634526Y669360D01*
X637747Y670694D01*
X641233Y670694D01*
X644454Y669360D01*
X646920Y666894D01*
X648254Y663673D01*
X648254Y660187D01*
X646920Y656966D01*
X644454Y654500D01*
X641233Y653166D01*
X637747Y653166D01*
G37*
%LPD*%
%LPC*%
G36*
X612347Y653166D02*
X612347Y653166D01*
X609126Y654500D01*
X606660Y656966D01*
X605326Y660187D01*
X605326Y663673D01*
X606660Y666894D01*
X609126Y669360D01*
X612347Y670694D01*
X615833Y670694D01*
X619054Y669360D01*
X621520Y666894D01*
X622854Y663673D01*
X622854Y660187D01*
X621520Y656966D01*
X619054Y654500D01*
X615833Y653166D01*
X612347Y653166D01*
G37*
%LPD*%
%LPC*%
G36*
X586947Y653166D02*
X586947Y653166D01*
X583726Y654500D01*
X581260Y656966D01*
X579926Y660187D01*
X579926Y663673D01*
X581260Y666894D01*
X583726Y669360D01*
X586947Y670694D01*
X590433Y670694D01*
X593654Y669360D01*
X596120Y666894D01*
X597454Y663673D01*
X597454Y660187D01*
X596120Y656966D01*
X593654Y654500D01*
X590433Y653166D01*
X586947Y653166D01*
G37*
%LPD*%
%LPC*%
G36*
X561547Y653166D02*
X561547Y653166D01*
X558326Y654500D01*
X555860Y656966D01*
X554526Y660187D01*
X554526Y663673D01*
X555860Y666894D01*
X558326Y669360D01*
X561547Y670694D01*
X565033Y670694D01*
X568254Y669360D01*
X570720Y666894D01*
X572054Y663673D01*
X572054Y660187D01*
X570720Y656966D01*
X568254Y654500D01*
X565033Y653166D01*
X561547Y653166D01*
G37*
%LPD*%
%LPC*%
G36*
X510747Y653166D02*
X510747Y653166D01*
X507526Y654500D01*
X505060Y656966D01*
X503726Y660187D01*
X503726Y663673D01*
X505060Y666894D01*
X507526Y669360D01*
X510747Y670694D01*
X514233Y670694D01*
X517454Y669360D01*
X519920Y666894D01*
X521254Y663673D01*
X521254Y660187D01*
X519920Y656966D01*
X517454Y654500D01*
X514233Y653166D01*
X510747Y653166D01*
G37*
%LPD*%
%LPC*%
G36*
X485347Y653166D02*
X485347Y653166D01*
X482126Y654500D01*
X479660Y656966D01*
X478326Y660187D01*
X478326Y663673D01*
X479660Y666894D01*
X482126Y669360D01*
X485347Y670694D01*
X488833Y670694D01*
X492054Y669360D01*
X494520Y666894D01*
X495854Y663673D01*
X495854Y660187D01*
X494520Y656966D01*
X492054Y654500D01*
X488833Y653166D01*
X485347Y653166D01*
G37*
%LPD*%
%LPC*%
G36*
X459947Y653166D02*
X459947Y653166D01*
X456726Y654500D01*
X454260Y656966D01*
X452926Y660187D01*
X452926Y663673D01*
X454260Y666894D01*
X456726Y669360D01*
X459947Y670694D01*
X463433Y670694D01*
X466654Y669360D01*
X469120Y666894D01*
X470454Y663673D01*
X470454Y660187D01*
X469120Y656966D01*
X466654Y654500D01*
X463433Y653166D01*
X459947Y653166D01*
G37*
%LPD*%
%LPC*%
G36*
X434547Y653166D02*
X434547Y653166D01*
X431326Y654500D01*
X428860Y656966D01*
X427526Y660187D01*
X427526Y663673D01*
X428860Y666894D01*
X431326Y669360D01*
X434547Y670694D01*
X438033Y670694D01*
X441254Y669360D01*
X443720Y666894D01*
X445054Y663673D01*
X445054Y660187D01*
X443720Y656966D01*
X441254Y654500D01*
X438033Y653166D01*
X434547Y653166D01*
G37*
%LPD*%
%LPC*%
G36*
X409147Y653166D02*
X409147Y653166D01*
X405926Y654500D01*
X403460Y656966D01*
X402126Y660187D01*
X402126Y663673D01*
X403460Y666894D01*
X405926Y669360D01*
X409147Y670694D01*
X412633Y670694D01*
X415854Y669360D01*
X418320Y666894D01*
X419654Y663673D01*
X419654Y660187D01*
X418320Y656966D01*
X415854Y654500D01*
X412633Y653166D01*
X409147Y653166D01*
G37*
%LPD*%
%LPC*%
G36*
X383747Y653166D02*
X383747Y653166D01*
X380526Y654500D01*
X378060Y656966D01*
X376726Y660187D01*
X376726Y663673D01*
X378060Y666894D01*
X380526Y669360D01*
X383747Y670694D01*
X387233Y670694D01*
X390454Y669360D01*
X392920Y666894D01*
X394254Y663673D01*
X394254Y660187D01*
X392920Y656966D01*
X390454Y654500D01*
X387233Y653166D01*
X383747Y653166D01*
G37*
%LPD*%
%LPC*%
G36*
X663147Y653166D02*
X663147Y653166D01*
X659926Y654500D01*
X657460Y656966D01*
X656126Y660187D01*
X656126Y663673D01*
X657460Y666894D01*
X659926Y669360D01*
X663147Y670694D01*
X666633Y670694D01*
X669854Y669360D01*
X672320Y666894D01*
X673654Y663673D01*
X673654Y660187D01*
X672320Y656966D01*
X669854Y654500D01*
X666633Y653166D01*
X663147Y653166D01*
G37*
%LPD*%
%LPC*%
G36*
X409147Y424566D02*
X409147Y424566D01*
X405926Y425900D01*
X403460Y428366D01*
X402126Y431587D01*
X402126Y435073D01*
X403460Y438294D01*
X405926Y440760D01*
X409147Y442094D01*
X412633Y442094D01*
X415854Y440760D01*
X418320Y438294D01*
X419654Y435073D01*
X419654Y431587D01*
X418320Y428366D01*
X415854Y425900D01*
X412633Y424566D01*
X409147Y424566D01*
G37*
%LPD*%
%LPC*%
G36*
X383747Y424566D02*
X383747Y424566D01*
X380526Y425900D01*
X378060Y428366D01*
X376726Y431587D01*
X376726Y435073D01*
X378060Y438294D01*
X380526Y440760D01*
X383747Y442094D01*
X387233Y442094D01*
X390454Y440760D01*
X392920Y438294D01*
X394254Y435073D01*
X394254Y431587D01*
X392920Y428366D01*
X390454Y425900D01*
X387233Y424566D01*
X383747Y424566D01*
G37*
%LPD*%
%LPC*%
G36*
X815547Y424566D02*
X815547Y424566D01*
X812326Y425900D01*
X809860Y428366D01*
X808526Y431587D01*
X808526Y435073D01*
X809860Y438294D01*
X812326Y440760D01*
X815547Y442094D01*
X819033Y442094D01*
X822254Y440760D01*
X824720Y438294D01*
X826054Y435073D01*
X826054Y431587D01*
X824720Y428366D01*
X822254Y425900D01*
X819033Y424566D01*
X815547Y424566D01*
G37*
%LPD*%
%LPC*%
G36*
X790147Y424566D02*
X790147Y424566D01*
X786926Y425900D01*
X784460Y428366D01*
X783126Y431587D01*
X783126Y435073D01*
X784460Y438294D01*
X786926Y440760D01*
X790147Y442094D01*
X793633Y442094D01*
X796854Y440760D01*
X799320Y438294D01*
X800654Y435073D01*
X800654Y431587D01*
X799320Y428366D01*
X796854Y425900D01*
X793633Y424566D01*
X790147Y424566D01*
G37*
%LPD*%
%LPC*%
G36*
X764747Y424566D02*
X764747Y424566D01*
X761526Y425900D01*
X759060Y428366D01*
X757726Y431587D01*
X757726Y435073D01*
X759060Y438294D01*
X761526Y440760D01*
X764747Y442094D01*
X768233Y442094D01*
X771454Y440760D01*
X773920Y438294D01*
X775254Y435073D01*
X775254Y431587D01*
X773920Y428366D01*
X771454Y425900D01*
X768233Y424566D01*
X764747Y424566D01*
G37*
%LPD*%
%LPC*%
G36*
X739347Y424566D02*
X739347Y424566D01*
X736126Y425900D01*
X733660Y428366D01*
X732326Y431587D01*
X732326Y435073D01*
X733660Y438294D01*
X736126Y440760D01*
X739347Y442094D01*
X742833Y442094D01*
X746054Y440760D01*
X748520Y438294D01*
X749854Y435073D01*
X749854Y431587D01*
X748520Y428366D01*
X746054Y425900D01*
X742833Y424566D01*
X739347Y424566D01*
G37*
%LPD*%
%LPC*%
G36*
X713947Y424566D02*
X713947Y424566D01*
X710726Y425900D01*
X708260Y428366D01*
X706926Y431587D01*
X706926Y435073D01*
X708260Y438294D01*
X710726Y440760D01*
X713947Y442094D01*
X717433Y442094D01*
X720654Y440760D01*
X723120Y438294D01*
X724454Y435073D01*
X724454Y431587D01*
X723120Y428366D01*
X720654Y425900D01*
X717433Y424566D01*
X713947Y424566D01*
G37*
%LPD*%
%LPC*%
G36*
X688547Y424566D02*
X688547Y424566D01*
X685326Y425900D01*
X682860Y428366D01*
X681526Y431587D01*
X681526Y435073D01*
X682860Y438294D01*
X685326Y440760D01*
X688547Y442094D01*
X692033Y442094D01*
X695254Y440760D01*
X697720Y438294D01*
X699054Y435073D01*
X699054Y431587D01*
X697720Y428366D01*
X695254Y425900D01*
X692033Y424566D01*
X688547Y424566D01*
G37*
%LPD*%
%LPC*%
G36*
X663147Y424566D02*
X663147Y424566D01*
X659926Y425900D01*
X657460Y428366D01*
X656126Y431587D01*
X656126Y435073D01*
X657460Y438294D01*
X659926Y440760D01*
X663147Y442094D01*
X666633Y442094D01*
X669854Y440760D01*
X672320Y438294D01*
X673654Y435073D01*
X673654Y431587D01*
X672320Y428366D01*
X669854Y425900D01*
X666633Y424566D01*
X663147Y424566D01*
G37*
%LPD*%
%LPC*%
G36*
X637747Y424566D02*
X637747Y424566D01*
X634526Y425900D01*
X632060Y428366D01*
X630726Y431587D01*
X630726Y435073D01*
X632060Y438294D01*
X634526Y440760D01*
X637747Y442094D01*
X641233Y442094D01*
X644454Y440760D01*
X646920Y438294D01*
X648254Y435073D01*
X648254Y431587D01*
X646920Y428366D01*
X644454Y425900D01*
X641233Y424566D01*
X637747Y424566D01*
G37*
%LPD*%
%LPC*%
G36*
X612347Y424566D02*
X612347Y424566D01*
X609126Y425900D01*
X606660Y428366D01*
X605326Y431587D01*
X605326Y435073D01*
X606660Y438294D01*
X609126Y440760D01*
X612347Y442094D01*
X615833Y442094D01*
X619054Y440760D01*
X621520Y438294D01*
X622854Y435073D01*
X622854Y431587D01*
X621520Y428366D01*
X619054Y425900D01*
X615833Y424566D01*
X612347Y424566D01*
G37*
%LPD*%
%LPC*%
G36*
X586947Y424566D02*
X586947Y424566D01*
X583726Y425900D01*
X581260Y428366D01*
X579926Y431587D01*
X579926Y435073D01*
X581260Y438294D01*
X583726Y440760D01*
X586947Y442094D01*
X590433Y442094D01*
X593654Y440760D01*
X596120Y438294D01*
X597454Y435073D01*
X597454Y431587D01*
X596120Y428366D01*
X593654Y425900D01*
X590433Y424566D01*
X586947Y424566D01*
G37*
%LPD*%
%LPC*%
G36*
X561547Y424566D02*
X561547Y424566D01*
X558326Y425900D01*
X555860Y428366D01*
X554526Y431587D01*
X554526Y435073D01*
X555860Y438294D01*
X558326Y440760D01*
X561547Y442094D01*
X565033Y442094D01*
X568254Y440760D01*
X570720Y438294D01*
X572054Y435073D01*
X572054Y431587D01*
X570720Y428366D01*
X568254Y425900D01*
X565033Y424566D01*
X561547Y424566D01*
G37*
%LPD*%
%LPC*%
G36*
X536147Y424566D02*
X536147Y424566D01*
X532926Y425900D01*
X530460Y428366D01*
X529126Y431587D01*
X529126Y435073D01*
X530460Y438294D01*
X532926Y440760D01*
X536147Y442094D01*
X539633Y442094D01*
X542854Y440760D01*
X545320Y438294D01*
X546654Y435073D01*
X546654Y431587D01*
X545320Y428366D01*
X542854Y425900D01*
X539633Y424566D01*
X536147Y424566D01*
G37*
%LPD*%
%LPC*%
G36*
X510747Y424566D02*
X510747Y424566D01*
X507526Y425900D01*
X505060Y428366D01*
X503726Y431587D01*
X503726Y435073D01*
X505060Y438294D01*
X507526Y440760D01*
X510747Y442094D01*
X514233Y442094D01*
X517454Y440760D01*
X519920Y438294D01*
X521254Y435073D01*
X521254Y431587D01*
X519920Y428366D01*
X517454Y425900D01*
X514233Y424566D01*
X510747Y424566D01*
G37*
%LPD*%
%LPC*%
G36*
X485347Y424566D02*
X485347Y424566D01*
X482126Y425900D01*
X479660Y428366D01*
X478326Y431587D01*
X478326Y435073D01*
X479660Y438294D01*
X482126Y440760D01*
X485347Y442094D01*
X488833Y442094D01*
X492054Y440760D01*
X494520Y438294D01*
X495854Y435073D01*
X495854Y431587D01*
X494520Y428366D01*
X492054Y425900D01*
X488833Y424566D01*
X485347Y424566D01*
G37*
%LPD*%
%LPC*%
G36*
X459947Y424566D02*
X459947Y424566D01*
X456726Y425900D01*
X454260Y428366D01*
X452926Y431587D01*
X452926Y435073D01*
X454260Y438294D01*
X456726Y440760D01*
X459947Y442094D01*
X463433Y442094D01*
X466654Y440760D01*
X469120Y438294D01*
X470454Y435073D01*
X470454Y431587D01*
X469120Y428366D01*
X466654Y425900D01*
X463433Y424566D01*
X459947Y424566D01*
G37*
%LPD*%
%LPC*%
G36*
X510747Y399166D02*
X510747Y399166D01*
X507526Y400500D01*
X505060Y402966D01*
X503726Y406187D01*
X503726Y409673D01*
X505060Y412894D01*
X507526Y415360D01*
X510747Y416694D01*
X514233Y416694D01*
X517454Y415360D01*
X519920Y412894D01*
X521254Y409673D01*
X521254Y406187D01*
X519920Y402966D01*
X517454Y400500D01*
X514233Y399166D01*
X510747Y399166D01*
G37*
%LPD*%
%LPC*%
G36*
X485347Y399166D02*
X485347Y399166D01*
X482126Y400500D01*
X479660Y402966D01*
X478326Y406187D01*
X478326Y409673D01*
X479660Y412894D01*
X482126Y415360D01*
X485347Y416694D01*
X488833Y416694D01*
X492054Y415360D01*
X494520Y412894D01*
X495854Y409673D01*
X495854Y406187D01*
X494520Y402966D01*
X492054Y400500D01*
X488833Y399166D01*
X485347Y399166D01*
G37*
%LPD*%
%LPC*%
G36*
X815547Y399166D02*
X815547Y399166D01*
X812326Y400500D01*
X809860Y402966D01*
X808526Y406187D01*
X808526Y409673D01*
X809860Y412894D01*
X812326Y415360D01*
X815547Y416694D01*
X819033Y416694D01*
X822254Y415360D01*
X824720Y412894D01*
X826054Y409673D01*
X826054Y406187D01*
X824720Y402966D01*
X822254Y400500D01*
X819033Y399166D01*
X815547Y399166D01*
G37*
%LPD*%
%LPC*%
G36*
X790147Y399166D02*
X790147Y399166D01*
X786926Y400500D01*
X784460Y402966D01*
X783126Y406187D01*
X783126Y409673D01*
X784460Y412894D01*
X786926Y415360D01*
X790147Y416694D01*
X793633Y416694D01*
X796854Y415360D01*
X799320Y412894D01*
X800654Y409673D01*
X800654Y406187D01*
X799320Y402966D01*
X796854Y400500D01*
X793633Y399166D01*
X790147Y399166D01*
G37*
%LPD*%
%LPC*%
G36*
X764747Y399166D02*
X764747Y399166D01*
X761526Y400500D01*
X759060Y402966D01*
X757726Y406187D01*
X757726Y409673D01*
X759060Y412894D01*
X761526Y415360D01*
X764747Y416694D01*
X768233Y416694D01*
X771454Y415360D01*
X773920Y412894D01*
X775254Y409673D01*
X775254Y406187D01*
X773920Y402966D01*
X771454Y400500D01*
X768233Y399166D01*
X764747Y399166D01*
G37*
%LPD*%
%LPC*%
G36*
X739347Y399166D02*
X739347Y399166D01*
X736126Y400500D01*
X733660Y402966D01*
X732326Y406187D01*
X732326Y409673D01*
X733660Y412894D01*
X736126Y415360D01*
X739347Y416694D01*
X742833Y416694D01*
X746054Y415360D01*
X748520Y412894D01*
X749854Y409673D01*
X749854Y406187D01*
X748520Y402966D01*
X746054Y400500D01*
X742833Y399166D01*
X739347Y399166D01*
G37*
%LPD*%
%LPC*%
G36*
X239895Y773985D02*
X239895Y773985D01*
X237298Y775061D01*
X235311Y777048D01*
X234235Y779645D01*
X234235Y782455D01*
X235311Y785052D01*
X237298Y787039D01*
X239895Y788115D01*
X242705Y788115D01*
X245302Y787039D01*
X247289Y785052D01*
X248365Y782455D01*
X248365Y779645D01*
X247289Y777048D01*
X245302Y775061D01*
X242705Y773985D01*
X239895Y773985D01*
G37*
%LPD*%
%LPC*%
G36*
X900295Y850185D02*
X900295Y850185D01*
X897698Y851261D01*
X895711Y853248D01*
X894635Y855845D01*
X894635Y858655D01*
X895711Y861252D01*
X897698Y863239D01*
X900295Y864315D01*
X903105Y864315D01*
X905702Y863239D01*
X907689Y861252D01*
X908765Y858655D01*
X908765Y855845D01*
X907689Y853248D01*
X905702Y851261D01*
X903105Y850185D01*
X900295Y850185D01*
G37*
%LPD*%
%LPC*%
G36*
X239895Y850185D02*
X239895Y850185D01*
X237298Y851261D01*
X235311Y853248D01*
X234235Y855845D01*
X234235Y858655D01*
X235311Y861252D01*
X237298Y863239D01*
X239895Y864315D01*
X242705Y864315D01*
X245302Y863239D01*
X247289Y861252D01*
X248365Y858655D01*
X248365Y855845D01*
X247289Y853248D01*
X245302Y851261D01*
X242705Y850185D01*
X239895Y850185D01*
G37*
%LPD*%
%LPC*%
G36*
X900295Y824785D02*
X900295Y824785D01*
X897698Y825861D01*
X895711Y827848D01*
X894635Y830445D01*
X894635Y833255D01*
X895711Y835852D01*
X897698Y837839D01*
X900295Y838915D01*
X903105Y838915D01*
X905702Y837839D01*
X907689Y835852D01*
X908765Y833255D01*
X908765Y830445D01*
X907689Y827848D01*
X905702Y825861D01*
X903105Y824785D01*
X900295Y824785D01*
G37*
%LPD*%
%LPC*%
G36*
X239895Y672385D02*
X239895Y672385D01*
X237298Y673461D01*
X235311Y675448D01*
X234235Y678045D01*
X234235Y680855D01*
X235311Y683452D01*
X237298Y685439D01*
X239895Y686515D01*
X242705Y686515D01*
X245302Y685439D01*
X247289Y683452D01*
X248365Y680855D01*
X248365Y678045D01*
X247289Y675448D01*
X245302Y673461D01*
X242705Y672385D01*
X239895Y672385D01*
G37*
%LPD*%
%LPC*%
G36*
X900295Y672385D02*
X900295Y672385D01*
X897698Y673461D01*
X895711Y675448D01*
X894635Y678045D01*
X894635Y680855D01*
X895711Y683452D01*
X897698Y685439D01*
X900295Y686515D01*
X903105Y686515D01*
X905702Y685439D01*
X907689Y683452D01*
X908765Y680855D01*
X908765Y678045D01*
X907689Y675448D01*
X905702Y673461D01*
X903105Y672385D01*
X900295Y672385D01*
G37*
%LPD*%
%LPC*%
G36*
X900295Y570785D02*
X900295Y570785D01*
X897698Y571861D01*
X895711Y573848D01*
X894635Y576445D01*
X894635Y579255D01*
X895711Y581852D01*
X897698Y583839D01*
X900295Y584915D01*
X903105Y584915D01*
X905702Y583839D01*
X907689Y581852D01*
X908765Y579255D01*
X908765Y576445D01*
X907689Y573848D01*
X905702Y571861D01*
X903105Y570785D01*
X900295Y570785D01*
G37*
%LPD*%
%LPC*%
G36*
X900295Y697785D02*
X900295Y697785D01*
X897698Y698861D01*
X895711Y700848D01*
X894635Y703445D01*
X894635Y706255D01*
X895711Y708852D01*
X897698Y710839D01*
X900295Y711915D01*
X903105Y711915D01*
X905702Y710839D01*
X907689Y708852D01*
X908765Y706255D01*
X908765Y703445D01*
X907689Y700848D01*
X905702Y698861D01*
X903105Y697785D01*
X900295Y697785D01*
G37*
%LPD*%
%LPC*%
G36*
X900295Y799385D02*
X900295Y799385D01*
X897698Y800461D01*
X895711Y802448D01*
X894635Y805045D01*
X894635Y807855D01*
X895711Y810452D01*
X897698Y812439D01*
X900295Y813515D01*
X903105Y813515D01*
X905702Y812439D01*
X907689Y810452D01*
X908765Y807855D01*
X908765Y805045D01*
X907689Y802448D01*
X905702Y800461D01*
X903105Y799385D01*
X900295Y799385D01*
G37*
%LPD*%
%LPC*%
G36*
X239895Y799385D02*
X239895Y799385D01*
X237298Y800461D01*
X235311Y802448D01*
X234235Y805045D01*
X234235Y807855D01*
X235311Y810452D01*
X237298Y812439D01*
X239895Y813515D01*
X242705Y813515D01*
X245302Y812439D01*
X247289Y810452D01*
X248365Y807855D01*
X248365Y805045D01*
X247289Y802448D01*
X245302Y800461D01*
X242705Y799385D01*
X239895Y799385D01*
G37*
%LPD*%
%LPC*%
G36*
X239895Y723185D02*
X239895Y723185D01*
X237298Y724261D01*
X235311Y726248D01*
X234235Y728845D01*
X234235Y731655D01*
X235311Y734252D01*
X237298Y736239D01*
X239895Y737315D01*
X242705Y737315D01*
X245302Y736239D01*
X247289Y734252D01*
X248365Y731655D01*
X248365Y728845D01*
X247289Y726248D01*
X245302Y724261D01*
X242705Y723185D01*
X239895Y723185D01*
G37*
%LPD*%
%LPC*%
G36*
X900295Y773985D02*
X900295Y773985D01*
X897698Y775061D01*
X895711Y777048D01*
X894635Y779645D01*
X894635Y782455D01*
X895711Y785052D01*
X897698Y787039D01*
X900295Y788115D01*
X903105Y788115D01*
X905702Y787039D01*
X907689Y785052D01*
X908765Y782455D01*
X908765Y779645D01*
X907689Y777048D01*
X905702Y775061D01*
X903105Y773985D01*
X900295Y773985D01*
G37*
%LPD*%
%LPC*%
G36*
X900295Y723185D02*
X900295Y723185D01*
X897698Y724261D01*
X895711Y726248D01*
X894635Y728845D01*
X894635Y731655D01*
X895711Y734252D01*
X897698Y736239D01*
X900295Y737315D01*
X903105Y737315D01*
X905702Y736239D01*
X907689Y734252D01*
X908765Y731655D01*
X908765Y728845D01*
X907689Y726248D01*
X905702Y724261D01*
X903105Y723185D01*
X900295Y723185D01*
G37*
%LPD*%
%LPC*%
G36*
X900295Y646985D02*
X900295Y646985D01*
X897698Y648061D01*
X895711Y650048D01*
X894635Y652645D01*
X894635Y655455D01*
X895711Y658052D01*
X897698Y660039D01*
X900295Y661115D01*
X903105Y661115D01*
X905702Y660039D01*
X907689Y658052D01*
X908765Y655455D01*
X908765Y652645D01*
X907689Y650048D01*
X905702Y648061D01*
X903105Y646985D01*
X900295Y646985D01*
G37*
%LPD*%
%LPC*%
G36*
X900295Y418385D02*
X900295Y418385D01*
X897698Y419461D01*
X895711Y421448D01*
X894635Y424045D01*
X894635Y426855D01*
X895711Y429452D01*
X897698Y431439D01*
X900295Y432515D01*
X903105Y432515D01*
X905702Y431439D01*
X907689Y429452D01*
X908765Y426855D01*
X908765Y424045D01*
X907689Y421448D01*
X905702Y419461D01*
X903105Y418385D01*
X900295Y418385D01*
G37*
%LPD*%
%LPC*%
G36*
X239895Y418385D02*
X239895Y418385D01*
X237298Y419461D01*
X235311Y421448D01*
X234235Y424045D01*
X234235Y426855D01*
X235311Y429452D01*
X237298Y431439D01*
X239895Y432515D01*
X242705Y432515D01*
X245302Y431439D01*
X247289Y429452D01*
X248365Y426855D01*
X248365Y424045D01*
X247289Y421448D01*
X245302Y419461D01*
X242705Y418385D01*
X239895Y418385D01*
G37*
%LPD*%
%LPC*%
G36*
X239895Y748585D02*
X239895Y748585D01*
X237298Y749661D01*
X235311Y751648D01*
X234235Y754245D01*
X234235Y757055D01*
X235311Y759652D01*
X237298Y761639D01*
X239895Y762715D01*
X242705Y762715D01*
X245302Y761639D01*
X247289Y759652D01*
X248365Y757055D01*
X248365Y754245D01*
X247289Y751648D01*
X245302Y749661D01*
X242705Y748585D01*
X239895Y748585D01*
G37*
%LPD*%
%LPC*%
G36*
X900295Y748585D02*
X900295Y748585D01*
X897698Y749661D01*
X895711Y751648D01*
X894635Y754245D01*
X894635Y757055D01*
X895711Y759652D01*
X897698Y761639D01*
X900295Y762715D01*
X903105Y762715D01*
X905702Y761639D01*
X907689Y759652D01*
X908765Y757055D01*
X908765Y754245D01*
X907689Y751648D01*
X905702Y749661D01*
X903105Y748585D01*
X900295Y748585D01*
G37*
%LPD*%
%LPC*%
G36*
X900295Y443785D02*
X900295Y443785D01*
X897698Y444861D01*
X895711Y446848D01*
X894635Y449445D01*
X894635Y452255D01*
X895711Y454852D01*
X897698Y456839D01*
X900295Y457915D01*
X903105Y457915D01*
X905702Y456839D01*
X907689Y454852D01*
X908765Y452255D01*
X908765Y449445D01*
X907689Y446848D01*
X905702Y444861D01*
X903105Y443785D01*
X900295Y443785D01*
G37*
%LPD*%
%LPC*%
G36*
X239895Y443785D02*
X239895Y443785D01*
X237298Y444861D01*
X235311Y446848D01*
X234235Y449445D01*
X234235Y452255D01*
X235311Y454852D01*
X237298Y456839D01*
X239895Y457915D01*
X242705Y457915D01*
X245302Y456839D01*
X247289Y454852D01*
X248365Y452255D01*
X248365Y449445D01*
X247289Y446848D01*
X245302Y444861D01*
X242705Y443785D01*
X239895Y443785D01*
G37*
%LPD*%
%LPC*%
G36*
X239895Y646985D02*
X239895Y646985D01*
X237298Y648061D01*
X235311Y650048D01*
X234235Y652645D01*
X234235Y655455D01*
X235311Y658052D01*
X237298Y660039D01*
X239895Y661115D01*
X242705Y661115D01*
X245302Y660039D01*
X247289Y658052D01*
X248365Y655455D01*
X248365Y652645D01*
X247289Y650048D01*
X245302Y648061D01*
X242705Y646985D01*
X239895Y646985D01*
G37*
%LPD*%
%LPC*%
G36*
X900295Y621585D02*
X900295Y621585D01*
X897698Y622661D01*
X895711Y624648D01*
X894635Y627245D01*
X894635Y630055D01*
X895711Y632652D01*
X897698Y634639D01*
X900295Y635715D01*
X903105Y635715D01*
X905702Y634639D01*
X907689Y632652D01*
X908765Y630055D01*
X908765Y627245D01*
X907689Y624648D01*
X905702Y622661D01*
X903105Y621585D01*
X900295Y621585D01*
G37*
%LPD*%
%LPC*%
G36*
X239895Y621585D02*
X239895Y621585D01*
X237298Y622661D01*
X235311Y624648D01*
X234235Y627245D01*
X234235Y630055D01*
X235311Y632652D01*
X237298Y634639D01*
X239895Y635715D01*
X242705Y635715D01*
X245302Y634639D01*
X247289Y632652D01*
X248365Y630055D01*
X248365Y627245D01*
X247289Y624648D01*
X245302Y622661D01*
X242705Y621585D01*
X239895Y621585D01*
G37*
%LPD*%
%LPC*%
G36*
X900295Y596185D02*
X900295Y596185D01*
X897698Y597261D01*
X895711Y599248D01*
X894635Y601845D01*
X894635Y604655D01*
X895711Y607252D01*
X897698Y609239D01*
X900295Y610315D01*
X903105Y610315D01*
X905702Y609239D01*
X907689Y607252D01*
X908765Y604655D01*
X908765Y601845D01*
X907689Y599248D01*
X905702Y597261D01*
X903105Y596185D01*
X900295Y596185D01*
G37*
%LPD*%
%LPC*%
G36*
X239895Y596185D02*
X239895Y596185D01*
X237298Y597261D01*
X235311Y599248D01*
X234235Y601845D01*
X234235Y604655D01*
X235311Y607252D01*
X237298Y609239D01*
X239895Y610315D01*
X242705Y610315D01*
X245302Y609239D01*
X247289Y607252D01*
X248365Y604655D01*
X248365Y601845D01*
X247289Y599248D01*
X245302Y597261D01*
X242705Y596185D01*
X239895Y596185D01*
G37*
%LPD*%
%LPC*%
G36*
X239895Y697785D02*
X239895Y697785D01*
X237298Y698861D01*
X235311Y700848D01*
X234235Y703445D01*
X234235Y706255D01*
X235311Y708852D01*
X237298Y710839D01*
X239895Y711915D01*
X242705Y711915D01*
X245302Y710839D01*
X247289Y708852D01*
X248365Y706255D01*
X248365Y703445D01*
X247289Y700848D01*
X245302Y698861D01*
X242705Y697785D01*
X239895Y697785D01*
G37*
%LPD*%
%LPC*%
G36*
X239895Y570785D02*
X239895Y570785D01*
X237298Y571861D01*
X235311Y573848D01*
X234235Y576445D01*
X234235Y579255D01*
X235311Y581852D01*
X237298Y583839D01*
X239895Y584915D01*
X242705Y584915D01*
X245302Y583839D01*
X247289Y581852D01*
X248365Y579255D01*
X248365Y576445D01*
X247289Y573848D01*
X245302Y571861D01*
X242705Y570785D01*
X239895Y570785D01*
G37*
%LPD*%
%LPC*%
G36*
X900295Y545385D02*
X900295Y545385D01*
X897698Y546461D01*
X895711Y548448D01*
X894635Y551045D01*
X894635Y553855D01*
X895711Y556452D01*
X897698Y558439D01*
X900295Y559515D01*
X903105Y559515D01*
X905702Y558439D01*
X907689Y556452D01*
X908765Y553855D01*
X908765Y551045D01*
X907689Y548448D01*
X905702Y546461D01*
X903105Y545385D01*
X900295Y545385D01*
G37*
%LPD*%
%LPC*%
G36*
X239895Y545385D02*
X239895Y545385D01*
X237298Y546461D01*
X235311Y548448D01*
X234235Y551045D01*
X234235Y553855D01*
X235311Y556452D01*
X237298Y558439D01*
X239895Y559515D01*
X242705Y559515D01*
X245302Y558439D01*
X247289Y556452D01*
X248365Y553855D01*
X248365Y551045D01*
X247289Y548448D01*
X245302Y546461D01*
X242705Y545385D01*
X239895Y545385D01*
G37*
%LPD*%
%LPC*%
G36*
X900295Y519985D02*
X900295Y519985D01*
X897698Y521061D01*
X895711Y523048D01*
X894635Y525645D01*
X894635Y528455D01*
X895711Y531052D01*
X897698Y533039D01*
X900295Y534115D01*
X903105Y534115D01*
X905702Y533039D01*
X907689Y531052D01*
X908765Y528455D01*
X908765Y525645D01*
X907689Y523048D01*
X905702Y521061D01*
X903105Y519985D01*
X900295Y519985D01*
G37*
%LPD*%
%LPC*%
G36*
X239895Y519985D02*
X239895Y519985D01*
X237298Y521061D01*
X235311Y523048D01*
X234235Y525645D01*
X234235Y528455D01*
X235311Y531052D01*
X237298Y533039D01*
X239895Y534115D01*
X242705Y534115D01*
X245302Y533039D01*
X247289Y531052D01*
X248365Y528455D01*
X248365Y525645D01*
X247289Y523048D01*
X245302Y521061D01*
X242705Y519985D01*
X239895Y519985D01*
G37*
%LPD*%
%LPC*%
G36*
X900295Y494585D02*
X900295Y494585D01*
X897698Y495661D01*
X895711Y497648D01*
X894635Y500245D01*
X894635Y503055D01*
X895711Y505652D01*
X897698Y507639D01*
X900295Y508715D01*
X903105Y508715D01*
X905702Y507639D01*
X907689Y505652D01*
X908765Y503055D01*
X908765Y500245D01*
X907689Y497648D01*
X905702Y495661D01*
X903105Y494585D01*
X900295Y494585D01*
G37*
%LPD*%
%LPC*%
G36*
X239895Y494585D02*
X239895Y494585D01*
X237298Y495661D01*
X235311Y497648D01*
X234235Y500245D01*
X234235Y503055D01*
X235311Y505652D01*
X237298Y507639D01*
X239895Y508715D01*
X242705Y508715D01*
X245302Y507639D01*
X247289Y505652D01*
X248365Y503055D01*
X248365Y500245D01*
X247289Y497648D01*
X245302Y495661D01*
X242705Y494585D01*
X239895Y494585D01*
G37*
%LPD*%
%LPC*%
G36*
X900295Y469185D02*
X900295Y469185D01*
X897698Y470261D01*
X895711Y472248D01*
X894635Y474845D01*
X894635Y477655D01*
X895711Y480252D01*
X897698Y482239D01*
X900295Y483315D01*
X903105Y483315D01*
X905702Y482239D01*
X907689Y480252D01*
X908765Y477655D01*
X908765Y474845D01*
X907689Y472248D01*
X905702Y470261D01*
X903105Y469185D01*
X900295Y469185D01*
G37*
%LPD*%
%LPC*%
G36*
X239895Y469185D02*
X239895Y469185D01*
X237298Y470261D01*
X235311Y472248D01*
X234235Y474845D01*
X234235Y477655D01*
X235311Y480252D01*
X237298Y482239D01*
X239895Y483315D01*
X242705Y483315D01*
X245302Y482239D01*
X247289Y480252D01*
X248365Y477655D01*
X248365Y474845D01*
X247289Y472248D01*
X245302Y470261D01*
X242705Y469185D01*
X239895Y469185D01*
G37*
%LPD*%
%LPC*%
G36*
X900295Y392985D02*
X900295Y392985D01*
X897698Y394061D01*
X895711Y396048D01*
X894635Y398645D01*
X894635Y401455D01*
X895711Y404052D01*
X897698Y406039D01*
X900295Y407115D01*
X903105Y407115D01*
X905702Y406039D01*
X907689Y404052D01*
X908765Y401455D01*
X908765Y398645D01*
X907689Y396048D01*
X905702Y394061D01*
X903105Y392985D01*
X900295Y392985D01*
G37*
%LPD*%
%LPC*%
G36*
X239895Y392985D02*
X239895Y392985D01*
X237298Y394061D01*
X235311Y396048D01*
X234235Y398645D01*
X234235Y401455D01*
X235311Y404052D01*
X237298Y406039D01*
X239895Y407115D01*
X242705Y407115D01*
X245302Y406039D01*
X247289Y404052D01*
X248365Y401455D01*
X248365Y398645D01*
X247289Y396048D01*
X245302Y394061D01*
X242705Y392985D01*
X239895Y392985D01*
G37*
%LPD*%
%LPC*%
G36*
X900295Y367585D02*
X900295Y367585D01*
X897698Y368661D01*
X895711Y370648D01*
X894635Y373245D01*
X894635Y376055D01*
X895711Y378652D01*
X897698Y380639D01*
X900295Y381715D01*
X903105Y381715D01*
X905702Y380639D01*
X907689Y378652D01*
X908765Y376055D01*
X908765Y373245D01*
X907689Y370648D01*
X905702Y368661D01*
X903105Y367585D01*
X900295Y367585D01*
G37*
%LPD*%
%LPC*%
G36*
X239895Y367585D02*
X239895Y367585D01*
X237298Y368661D01*
X235311Y370648D01*
X234235Y373245D01*
X234235Y376055D01*
X235311Y378652D01*
X237298Y380639D01*
X239895Y381715D01*
X242705Y381715D01*
X245302Y380639D01*
X247289Y378652D01*
X248365Y376055D01*
X248365Y373245D01*
X247289Y370648D01*
X245302Y368661D01*
X242705Y367585D01*
X239895Y367585D01*
G37*
%LPD*%
%LPC*%
G36*
X1223168Y781811D02*
X1223168Y781811D01*
X1221114Y782662D01*
X1219542Y784234D01*
X1218691Y786288D01*
X1218691Y788512D01*
X1219542Y790566D01*
X1221114Y792138D01*
X1223168Y792989D01*
X1225392Y792989D01*
X1227446Y792138D01*
X1229018Y790566D01*
X1229869Y788512D01*
X1229869Y786288D01*
X1229018Y784234D01*
X1227446Y782662D01*
X1225392Y781811D01*
X1223168Y781811D01*
G37*
%LPD*%
%LPC*%
G36*
X562768Y858011D02*
X562768Y858011D01*
X560714Y858862D01*
X559142Y860434D01*
X558291Y862488D01*
X558291Y864712D01*
X559142Y866766D01*
X560714Y868338D01*
X562768Y869189D01*
X564992Y869189D01*
X567046Y868338D01*
X568618Y866766D01*
X569469Y864712D01*
X569469Y862488D01*
X568618Y860434D01*
X567046Y858862D01*
X564992Y858011D01*
X562768Y858011D01*
G37*
%LPD*%
%LPC*%
G36*
X539413Y663453D02*
X539413Y663453D01*
X539413Y670562D01*
X540446Y670357D01*
X542041Y669696D01*
X543477Y668737D01*
X544697Y667517D01*
X545656Y666081D01*
X546317Y664486D01*
X546522Y663453D01*
X539413Y663453D01*
G37*
%LPD*%
%LPC*%
G36*
X529258Y663453D02*
X529258Y663453D01*
X529463Y664486D01*
X530124Y666081D01*
X531083Y667517D01*
X532303Y668737D01*
X533739Y669696D01*
X535334Y670357D01*
X536367Y670562D01*
X536367Y663453D01*
X529258Y663453D01*
G37*
%LPD*%
%LPC*%
G36*
X539413Y660407D02*
X539413Y660407D01*
X546522Y660407D01*
X546317Y659374D01*
X545656Y657779D01*
X544697Y656343D01*
X543477Y655123D01*
X542041Y654164D01*
X540446Y653503D01*
X539413Y653298D01*
X539413Y660407D01*
G37*
%LPD*%
%LPC*%
G36*
X535334Y653503D02*
X535334Y653503D01*
X533739Y654164D01*
X532303Y655123D01*
X531083Y656343D01*
X530124Y657779D01*
X529463Y659374D01*
X529258Y660407D01*
X536367Y660407D01*
X536367Y653298D01*
X535334Y653503D01*
G37*
%LPD*%
%LPC*%
G36*
X242799Y833349D02*
X242799Y833349D01*
X242799Y838755D01*
X243361Y838643D01*
X244646Y838111D01*
X245803Y837338D01*
X246788Y836353D01*
X247561Y835196D01*
X248093Y833911D01*
X248205Y833349D01*
X242799Y833349D01*
G37*
%LPD*%
%LPC*%
G36*
X242799Y830351D02*
X242799Y830351D01*
X248205Y830351D01*
X248093Y829789D01*
X247561Y828504D01*
X247334Y828164D01*
X246788Y827347D01*
X245803Y826362D01*
X244646Y825589D01*
X243361Y825057D01*
X242799Y824945D01*
X242799Y830351D01*
G37*
%LPD*%
%LPC*%
G36*
X234395Y833349D02*
X234395Y833349D01*
X234507Y833911D01*
X235039Y835196D01*
X235812Y836353D01*
X236797Y837338D01*
X237954Y838111D01*
X239239Y838643D01*
X239801Y838755D01*
X239801Y833349D01*
X234395Y833349D01*
G37*
%LPD*%
%LPC*%
G36*
X239239Y825057D02*
X239239Y825057D01*
X237954Y825589D01*
X236797Y826362D01*
X235812Y827347D01*
X235039Y828504D01*
X234507Y829789D01*
X234395Y830351D01*
X239801Y830351D01*
X239801Y824945D01*
X239239Y825057D01*
G37*
%LPD*%
%LPC*%
G36*
X537889Y661929D02*
X537889Y661929D01*
X537889Y661931D01*
X537891Y661931D01*
X537891Y661929D01*
X537889Y661929D01*
G37*
%LPD*%
D10*
X361950Y758190D03*
X386950Y758190D03*
X406950Y758190D03*
X431950Y758190D03*
D11*
X331250Y785290D03*
X462650Y785290D03*
D12*
X31750Y857250D03*
D13*
X385490Y687330D03*
X385490Y661930D03*
X410890Y687330D03*
X410890Y661930D03*
X436290Y687330D03*
X436290Y661930D03*
X461690Y687330D03*
X461690Y661930D03*
X487090Y687330D03*
X487090Y661930D03*
X512490Y687330D03*
X512490Y661930D03*
X537890Y687330D03*
X537890Y661930D03*
X563290Y687330D03*
X563290Y661930D03*
X588690Y687330D03*
X588690Y661930D03*
X614090Y687330D03*
X614090Y661930D03*
X639490Y687330D03*
X639490Y661930D03*
X664890Y687330D03*
X664890Y661930D03*
X690290Y687330D03*
X690290Y661930D03*
X715690Y687330D03*
X715690Y661930D03*
X741090Y687330D03*
X741090Y661930D03*
X766490Y687330D03*
X766490Y661930D03*
X791890Y687330D03*
X791890Y661930D03*
X817290Y687330D03*
X817290Y661930D03*
X385490Y433330D03*
X385490Y407930D03*
X410890Y433330D03*
X410890Y407930D03*
X436290Y433330D03*
X436290Y407930D03*
X461690Y433330D03*
X461690Y407930D03*
X487090Y433330D03*
X487090Y407930D03*
X512490Y433330D03*
X512490Y407930D03*
X537890Y433330D03*
X537890Y407930D03*
X563290Y433330D03*
X563290Y407930D03*
X588690Y433330D03*
X588690Y407930D03*
X614090Y433330D03*
X614090Y407930D03*
X639490Y433330D03*
X639490Y407930D03*
X664890Y433330D03*
X664890Y407930D03*
X690290Y433330D03*
X690290Y407930D03*
X715690Y433330D03*
X715690Y407930D03*
X741090Y433330D03*
X741090Y407930D03*
X766490Y433330D03*
X766490Y407930D03*
X791890Y433330D03*
X791890Y407930D03*
X817290Y433330D03*
X817290Y407930D03*
D14*
X214900Y679050D03*
X214900Y629050D03*
X89900Y629050D03*
X89900Y679050D03*
X919750Y139300D03*
X919750Y89300D03*
X794750Y89300D03*
X794750Y139300D03*
X214900Y469500D03*
X214900Y419500D03*
X89900Y419500D03*
X89900Y469500D03*
X1186450Y139300D03*
X1186450Y89300D03*
X1061450Y89300D03*
X1061450Y139300D03*
D12*
X31750Y31750D03*
X1231900Y38100D03*
X1238250Y850900D03*
D15*
X241300Y857250D03*
X241300Y831850D03*
X241300Y806450D03*
X241300Y781050D03*
X241300Y755650D03*
X241300Y730250D03*
X241300Y704850D03*
X241300Y679450D03*
X241300Y654050D03*
X241300Y628650D03*
X241300Y603250D03*
X241300Y577850D03*
X241300Y552450D03*
X241300Y527050D03*
X241300Y501650D03*
X241300Y476250D03*
X241300Y450850D03*
X241300Y425450D03*
X241300Y400050D03*
X241300Y374650D03*
X901700Y857250D03*
X901700Y831850D03*
X901700Y806450D03*
X901700Y781050D03*
X901700Y755650D03*
X901700Y730250D03*
X901700Y704850D03*
X901700Y679450D03*
X901700Y654050D03*
X901700Y628650D03*
X901700Y603250D03*
X901700Y577850D03*
X901700Y552450D03*
X901700Y527050D03*
X901700Y501650D03*
X901700Y476250D03*
X901700Y450850D03*
X901700Y425450D03*
X901700Y400050D03*
X901700Y374650D03*
D16*
X1224280Y787400D03*
X563880Y863600D03*
X63500Y464820D03*
X63500Y673100D03*
X723900Y127000D03*
X990600Y127000D03*
M02*
