G04 EAGLE Gerber RS-274X export*
G75*
%MOMM*%
%FSLAX34Y34*%
%LPD*%
%INSoldermask Bottom*%
%IPPOS*%
%AMOC8*
5,1,8,0,0,1.08239X$1,22.5*%
G01*
%ADD10R,1.440400X1.440400*%
%ADD11C,1.440400*%
%ADD12C,3.372400*%
%ADD13C,0.609600*%
%ADD14C,1.168400*%
%ADD15C,4.597400*%
%ADD16R,1.676400X1.676400*%
%ADD17P,1.814519X8X22.500000*%
%ADD18C,2.112400*%
%ADD19R,2.152400X4.252400*%
%ADD20R,1.057200X1.057200*%


D10*
X361950Y758190D03*
D11*
X386950Y758190D03*
X406950Y758190D03*
X431950Y758190D03*
D12*
X331250Y785290D03*
X462650Y785290D03*
D13*
X30480Y812800D02*
X30482Y812987D01*
X30489Y813174D01*
X30501Y813361D01*
X30517Y813547D01*
X30537Y813733D01*
X30562Y813918D01*
X30592Y814103D01*
X30626Y814287D01*
X30665Y814470D01*
X30708Y814652D01*
X30756Y814832D01*
X30808Y815012D01*
X30865Y815190D01*
X30925Y815367D01*
X30991Y815542D01*
X31060Y815716D01*
X31134Y815888D01*
X31212Y816058D01*
X31294Y816226D01*
X31380Y816392D01*
X31470Y816556D01*
X31564Y816717D01*
X31662Y816877D01*
X31764Y817033D01*
X31870Y817188D01*
X31980Y817339D01*
X32093Y817488D01*
X32210Y817634D01*
X32330Y817777D01*
X32454Y817917D01*
X32581Y818054D01*
X32712Y818188D01*
X32846Y818319D01*
X32983Y818446D01*
X33123Y818570D01*
X33266Y818690D01*
X33412Y818807D01*
X33561Y818920D01*
X33712Y819030D01*
X33867Y819136D01*
X34023Y819238D01*
X34183Y819336D01*
X34344Y819430D01*
X34508Y819520D01*
X34674Y819606D01*
X34842Y819688D01*
X35012Y819766D01*
X35184Y819840D01*
X35358Y819909D01*
X35533Y819975D01*
X35710Y820035D01*
X35888Y820092D01*
X36068Y820144D01*
X36248Y820192D01*
X36430Y820235D01*
X36613Y820274D01*
X36797Y820308D01*
X36982Y820338D01*
X37167Y820363D01*
X37353Y820383D01*
X37539Y820399D01*
X37726Y820411D01*
X37913Y820418D01*
X38100Y820420D01*
X38287Y820418D01*
X38474Y820411D01*
X38661Y820399D01*
X38847Y820383D01*
X39033Y820363D01*
X39218Y820338D01*
X39403Y820308D01*
X39587Y820274D01*
X39770Y820235D01*
X39952Y820192D01*
X40132Y820144D01*
X40312Y820092D01*
X40490Y820035D01*
X40667Y819975D01*
X40842Y819909D01*
X41016Y819840D01*
X41188Y819766D01*
X41358Y819688D01*
X41526Y819606D01*
X41692Y819520D01*
X41856Y819430D01*
X42017Y819336D01*
X42177Y819238D01*
X42333Y819136D01*
X42488Y819030D01*
X42639Y818920D01*
X42788Y818807D01*
X42934Y818690D01*
X43077Y818570D01*
X43217Y818446D01*
X43354Y818319D01*
X43488Y818188D01*
X43619Y818054D01*
X43746Y817917D01*
X43870Y817777D01*
X43990Y817634D01*
X44107Y817488D01*
X44220Y817339D01*
X44330Y817188D01*
X44436Y817033D01*
X44538Y816877D01*
X44636Y816717D01*
X44730Y816556D01*
X44820Y816392D01*
X44906Y816226D01*
X44988Y816058D01*
X45066Y815888D01*
X45140Y815716D01*
X45209Y815542D01*
X45275Y815367D01*
X45335Y815190D01*
X45392Y815012D01*
X45444Y814832D01*
X45492Y814652D01*
X45535Y814470D01*
X45574Y814287D01*
X45608Y814103D01*
X45638Y813918D01*
X45663Y813733D01*
X45683Y813547D01*
X45699Y813361D01*
X45711Y813174D01*
X45718Y812987D01*
X45720Y812800D01*
X45718Y812613D01*
X45711Y812426D01*
X45699Y812239D01*
X45683Y812053D01*
X45663Y811867D01*
X45638Y811682D01*
X45608Y811497D01*
X45574Y811313D01*
X45535Y811130D01*
X45492Y810948D01*
X45444Y810768D01*
X45392Y810588D01*
X45335Y810410D01*
X45275Y810233D01*
X45209Y810058D01*
X45140Y809884D01*
X45066Y809712D01*
X44988Y809542D01*
X44906Y809374D01*
X44820Y809208D01*
X44730Y809044D01*
X44636Y808883D01*
X44538Y808723D01*
X44436Y808567D01*
X44330Y808412D01*
X44220Y808261D01*
X44107Y808112D01*
X43990Y807966D01*
X43870Y807823D01*
X43746Y807683D01*
X43619Y807546D01*
X43488Y807412D01*
X43354Y807281D01*
X43217Y807154D01*
X43077Y807030D01*
X42934Y806910D01*
X42788Y806793D01*
X42639Y806680D01*
X42488Y806570D01*
X42333Y806464D01*
X42177Y806362D01*
X42017Y806264D01*
X41856Y806170D01*
X41692Y806080D01*
X41526Y805994D01*
X41358Y805912D01*
X41188Y805834D01*
X41016Y805760D01*
X40842Y805691D01*
X40667Y805625D01*
X40490Y805565D01*
X40312Y805508D01*
X40132Y805456D01*
X39952Y805408D01*
X39770Y805365D01*
X39587Y805326D01*
X39403Y805292D01*
X39218Y805262D01*
X39033Y805237D01*
X38847Y805217D01*
X38661Y805201D01*
X38474Y805189D01*
X38287Y805182D01*
X38100Y805180D01*
X37913Y805182D01*
X37726Y805189D01*
X37539Y805201D01*
X37353Y805217D01*
X37167Y805237D01*
X36982Y805262D01*
X36797Y805292D01*
X36613Y805326D01*
X36430Y805365D01*
X36248Y805408D01*
X36068Y805456D01*
X35888Y805508D01*
X35710Y805565D01*
X35533Y805625D01*
X35358Y805691D01*
X35184Y805760D01*
X35012Y805834D01*
X34842Y805912D01*
X34674Y805994D01*
X34508Y806080D01*
X34344Y806170D01*
X34183Y806264D01*
X34023Y806362D01*
X33867Y806464D01*
X33712Y806570D01*
X33561Y806680D01*
X33412Y806793D01*
X33266Y806910D01*
X33123Y807030D01*
X32983Y807154D01*
X32846Y807281D01*
X32712Y807412D01*
X32581Y807546D01*
X32454Y807683D01*
X32330Y807823D01*
X32210Y807966D01*
X32093Y808112D01*
X31980Y808261D01*
X31870Y808412D01*
X31764Y808567D01*
X31662Y808723D01*
X31564Y808883D01*
X31470Y809044D01*
X31380Y809208D01*
X31294Y809374D01*
X31212Y809542D01*
X31134Y809712D01*
X31060Y809884D01*
X30991Y810058D01*
X30925Y810233D01*
X30865Y810410D01*
X30808Y810588D01*
X30756Y810768D01*
X30708Y810948D01*
X30665Y811130D01*
X30626Y811313D01*
X30592Y811497D01*
X30562Y811682D01*
X30537Y811867D01*
X30517Y812053D01*
X30501Y812239D01*
X30489Y812426D01*
X30482Y812613D01*
X30480Y812800D01*
D14*
X38100Y812800D03*
D13*
X1236980Y812800D02*
X1236982Y812987D01*
X1236989Y813174D01*
X1237001Y813361D01*
X1237017Y813547D01*
X1237037Y813733D01*
X1237062Y813918D01*
X1237092Y814103D01*
X1237126Y814287D01*
X1237165Y814470D01*
X1237208Y814652D01*
X1237256Y814832D01*
X1237308Y815012D01*
X1237365Y815190D01*
X1237425Y815367D01*
X1237491Y815542D01*
X1237560Y815716D01*
X1237634Y815888D01*
X1237712Y816058D01*
X1237794Y816226D01*
X1237880Y816392D01*
X1237970Y816556D01*
X1238064Y816717D01*
X1238162Y816877D01*
X1238264Y817033D01*
X1238370Y817188D01*
X1238480Y817339D01*
X1238593Y817488D01*
X1238710Y817634D01*
X1238830Y817777D01*
X1238954Y817917D01*
X1239081Y818054D01*
X1239212Y818188D01*
X1239346Y818319D01*
X1239483Y818446D01*
X1239623Y818570D01*
X1239766Y818690D01*
X1239912Y818807D01*
X1240061Y818920D01*
X1240212Y819030D01*
X1240367Y819136D01*
X1240523Y819238D01*
X1240683Y819336D01*
X1240844Y819430D01*
X1241008Y819520D01*
X1241174Y819606D01*
X1241342Y819688D01*
X1241512Y819766D01*
X1241684Y819840D01*
X1241858Y819909D01*
X1242033Y819975D01*
X1242210Y820035D01*
X1242388Y820092D01*
X1242568Y820144D01*
X1242748Y820192D01*
X1242930Y820235D01*
X1243113Y820274D01*
X1243297Y820308D01*
X1243482Y820338D01*
X1243667Y820363D01*
X1243853Y820383D01*
X1244039Y820399D01*
X1244226Y820411D01*
X1244413Y820418D01*
X1244600Y820420D01*
X1244787Y820418D01*
X1244974Y820411D01*
X1245161Y820399D01*
X1245347Y820383D01*
X1245533Y820363D01*
X1245718Y820338D01*
X1245903Y820308D01*
X1246087Y820274D01*
X1246270Y820235D01*
X1246452Y820192D01*
X1246632Y820144D01*
X1246812Y820092D01*
X1246990Y820035D01*
X1247167Y819975D01*
X1247342Y819909D01*
X1247516Y819840D01*
X1247688Y819766D01*
X1247858Y819688D01*
X1248026Y819606D01*
X1248192Y819520D01*
X1248356Y819430D01*
X1248517Y819336D01*
X1248677Y819238D01*
X1248833Y819136D01*
X1248988Y819030D01*
X1249139Y818920D01*
X1249288Y818807D01*
X1249434Y818690D01*
X1249577Y818570D01*
X1249717Y818446D01*
X1249854Y818319D01*
X1249988Y818188D01*
X1250119Y818054D01*
X1250246Y817917D01*
X1250370Y817777D01*
X1250490Y817634D01*
X1250607Y817488D01*
X1250720Y817339D01*
X1250830Y817188D01*
X1250936Y817033D01*
X1251038Y816877D01*
X1251136Y816717D01*
X1251230Y816556D01*
X1251320Y816392D01*
X1251406Y816226D01*
X1251488Y816058D01*
X1251566Y815888D01*
X1251640Y815716D01*
X1251709Y815542D01*
X1251775Y815367D01*
X1251835Y815190D01*
X1251892Y815012D01*
X1251944Y814832D01*
X1251992Y814652D01*
X1252035Y814470D01*
X1252074Y814287D01*
X1252108Y814103D01*
X1252138Y813918D01*
X1252163Y813733D01*
X1252183Y813547D01*
X1252199Y813361D01*
X1252211Y813174D01*
X1252218Y812987D01*
X1252220Y812800D01*
X1252218Y812613D01*
X1252211Y812426D01*
X1252199Y812239D01*
X1252183Y812053D01*
X1252163Y811867D01*
X1252138Y811682D01*
X1252108Y811497D01*
X1252074Y811313D01*
X1252035Y811130D01*
X1251992Y810948D01*
X1251944Y810768D01*
X1251892Y810588D01*
X1251835Y810410D01*
X1251775Y810233D01*
X1251709Y810058D01*
X1251640Y809884D01*
X1251566Y809712D01*
X1251488Y809542D01*
X1251406Y809374D01*
X1251320Y809208D01*
X1251230Y809044D01*
X1251136Y808883D01*
X1251038Y808723D01*
X1250936Y808567D01*
X1250830Y808412D01*
X1250720Y808261D01*
X1250607Y808112D01*
X1250490Y807966D01*
X1250370Y807823D01*
X1250246Y807683D01*
X1250119Y807546D01*
X1249988Y807412D01*
X1249854Y807281D01*
X1249717Y807154D01*
X1249577Y807030D01*
X1249434Y806910D01*
X1249288Y806793D01*
X1249139Y806680D01*
X1248988Y806570D01*
X1248833Y806464D01*
X1248677Y806362D01*
X1248517Y806264D01*
X1248356Y806170D01*
X1248192Y806080D01*
X1248026Y805994D01*
X1247858Y805912D01*
X1247688Y805834D01*
X1247516Y805760D01*
X1247342Y805691D01*
X1247167Y805625D01*
X1246990Y805565D01*
X1246812Y805508D01*
X1246632Y805456D01*
X1246452Y805408D01*
X1246270Y805365D01*
X1246087Y805326D01*
X1245903Y805292D01*
X1245718Y805262D01*
X1245533Y805237D01*
X1245347Y805217D01*
X1245161Y805201D01*
X1244974Y805189D01*
X1244787Y805182D01*
X1244600Y805180D01*
X1244413Y805182D01*
X1244226Y805189D01*
X1244039Y805201D01*
X1243853Y805217D01*
X1243667Y805237D01*
X1243482Y805262D01*
X1243297Y805292D01*
X1243113Y805326D01*
X1242930Y805365D01*
X1242748Y805408D01*
X1242568Y805456D01*
X1242388Y805508D01*
X1242210Y805565D01*
X1242033Y805625D01*
X1241858Y805691D01*
X1241684Y805760D01*
X1241512Y805834D01*
X1241342Y805912D01*
X1241174Y805994D01*
X1241008Y806080D01*
X1240844Y806170D01*
X1240683Y806264D01*
X1240523Y806362D01*
X1240367Y806464D01*
X1240212Y806570D01*
X1240061Y806680D01*
X1239912Y806793D01*
X1239766Y806910D01*
X1239623Y807030D01*
X1239483Y807154D01*
X1239346Y807281D01*
X1239212Y807412D01*
X1239081Y807546D01*
X1238954Y807683D01*
X1238830Y807823D01*
X1238710Y807966D01*
X1238593Y808112D01*
X1238480Y808261D01*
X1238370Y808412D01*
X1238264Y808567D01*
X1238162Y808723D01*
X1238064Y808883D01*
X1237970Y809044D01*
X1237880Y809208D01*
X1237794Y809374D01*
X1237712Y809542D01*
X1237634Y809712D01*
X1237560Y809884D01*
X1237491Y810058D01*
X1237425Y810233D01*
X1237365Y810410D01*
X1237308Y810588D01*
X1237256Y810768D01*
X1237208Y810948D01*
X1237165Y811130D01*
X1237126Y811313D01*
X1237092Y811497D01*
X1237062Y811682D01*
X1237037Y811867D01*
X1237017Y812053D01*
X1237001Y812239D01*
X1236989Y812426D01*
X1236982Y812613D01*
X1236980Y812800D01*
D14*
X1244600Y812800D03*
D13*
X1236980Y139700D02*
X1236982Y139887D01*
X1236989Y140074D01*
X1237001Y140261D01*
X1237017Y140447D01*
X1237037Y140633D01*
X1237062Y140818D01*
X1237092Y141003D01*
X1237126Y141187D01*
X1237165Y141370D01*
X1237208Y141552D01*
X1237256Y141732D01*
X1237308Y141912D01*
X1237365Y142090D01*
X1237425Y142267D01*
X1237491Y142442D01*
X1237560Y142616D01*
X1237634Y142788D01*
X1237712Y142958D01*
X1237794Y143126D01*
X1237880Y143292D01*
X1237970Y143456D01*
X1238064Y143617D01*
X1238162Y143777D01*
X1238264Y143933D01*
X1238370Y144088D01*
X1238480Y144239D01*
X1238593Y144388D01*
X1238710Y144534D01*
X1238830Y144677D01*
X1238954Y144817D01*
X1239081Y144954D01*
X1239212Y145088D01*
X1239346Y145219D01*
X1239483Y145346D01*
X1239623Y145470D01*
X1239766Y145590D01*
X1239912Y145707D01*
X1240061Y145820D01*
X1240212Y145930D01*
X1240367Y146036D01*
X1240523Y146138D01*
X1240683Y146236D01*
X1240844Y146330D01*
X1241008Y146420D01*
X1241174Y146506D01*
X1241342Y146588D01*
X1241512Y146666D01*
X1241684Y146740D01*
X1241858Y146809D01*
X1242033Y146875D01*
X1242210Y146935D01*
X1242388Y146992D01*
X1242568Y147044D01*
X1242748Y147092D01*
X1242930Y147135D01*
X1243113Y147174D01*
X1243297Y147208D01*
X1243482Y147238D01*
X1243667Y147263D01*
X1243853Y147283D01*
X1244039Y147299D01*
X1244226Y147311D01*
X1244413Y147318D01*
X1244600Y147320D01*
X1244787Y147318D01*
X1244974Y147311D01*
X1245161Y147299D01*
X1245347Y147283D01*
X1245533Y147263D01*
X1245718Y147238D01*
X1245903Y147208D01*
X1246087Y147174D01*
X1246270Y147135D01*
X1246452Y147092D01*
X1246632Y147044D01*
X1246812Y146992D01*
X1246990Y146935D01*
X1247167Y146875D01*
X1247342Y146809D01*
X1247516Y146740D01*
X1247688Y146666D01*
X1247858Y146588D01*
X1248026Y146506D01*
X1248192Y146420D01*
X1248356Y146330D01*
X1248517Y146236D01*
X1248677Y146138D01*
X1248833Y146036D01*
X1248988Y145930D01*
X1249139Y145820D01*
X1249288Y145707D01*
X1249434Y145590D01*
X1249577Y145470D01*
X1249717Y145346D01*
X1249854Y145219D01*
X1249988Y145088D01*
X1250119Y144954D01*
X1250246Y144817D01*
X1250370Y144677D01*
X1250490Y144534D01*
X1250607Y144388D01*
X1250720Y144239D01*
X1250830Y144088D01*
X1250936Y143933D01*
X1251038Y143777D01*
X1251136Y143617D01*
X1251230Y143456D01*
X1251320Y143292D01*
X1251406Y143126D01*
X1251488Y142958D01*
X1251566Y142788D01*
X1251640Y142616D01*
X1251709Y142442D01*
X1251775Y142267D01*
X1251835Y142090D01*
X1251892Y141912D01*
X1251944Y141732D01*
X1251992Y141552D01*
X1252035Y141370D01*
X1252074Y141187D01*
X1252108Y141003D01*
X1252138Y140818D01*
X1252163Y140633D01*
X1252183Y140447D01*
X1252199Y140261D01*
X1252211Y140074D01*
X1252218Y139887D01*
X1252220Y139700D01*
X1252218Y139513D01*
X1252211Y139326D01*
X1252199Y139139D01*
X1252183Y138953D01*
X1252163Y138767D01*
X1252138Y138582D01*
X1252108Y138397D01*
X1252074Y138213D01*
X1252035Y138030D01*
X1251992Y137848D01*
X1251944Y137668D01*
X1251892Y137488D01*
X1251835Y137310D01*
X1251775Y137133D01*
X1251709Y136958D01*
X1251640Y136784D01*
X1251566Y136612D01*
X1251488Y136442D01*
X1251406Y136274D01*
X1251320Y136108D01*
X1251230Y135944D01*
X1251136Y135783D01*
X1251038Y135623D01*
X1250936Y135467D01*
X1250830Y135312D01*
X1250720Y135161D01*
X1250607Y135012D01*
X1250490Y134866D01*
X1250370Y134723D01*
X1250246Y134583D01*
X1250119Y134446D01*
X1249988Y134312D01*
X1249854Y134181D01*
X1249717Y134054D01*
X1249577Y133930D01*
X1249434Y133810D01*
X1249288Y133693D01*
X1249139Y133580D01*
X1248988Y133470D01*
X1248833Y133364D01*
X1248677Y133262D01*
X1248517Y133164D01*
X1248356Y133070D01*
X1248192Y132980D01*
X1248026Y132894D01*
X1247858Y132812D01*
X1247688Y132734D01*
X1247516Y132660D01*
X1247342Y132591D01*
X1247167Y132525D01*
X1246990Y132465D01*
X1246812Y132408D01*
X1246632Y132356D01*
X1246452Y132308D01*
X1246270Y132265D01*
X1246087Y132226D01*
X1245903Y132192D01*
X1245718Y132162D01*
X1245533Y132137D01*
X1245347Y132117D01*
X1245161Y132101D01*
X1244974Y132089D01*
X1244787Y132082D01*
X1244600Y132080D01*
X1244413Y132082D01*
X1244226Y132089D01*
X1244039Y132101D01*
X1243853Y132117D01*
X1243667Y132137D01*
X1243482Y132162D01*
X1243297Y132192D01*
X1243113Y132226D01*
X1242930Y132265D01*
X1242748Y132308D01*
X1242568Y132356D01*
X1242388Y132408D01*
X1242210Y132465D01*
X1242033Y132525D01*
X1241858Y132591D01*
X1241684Y132660D01*
X1241512Y132734D01*
X1241342Y132812D01*
X1241174Y132894D01*
X1241008Y132980D01*
X1240844Y133070D01*
X1240683Y133164D01*
X1240523Y133262D01*
X1240367Y133364D01*
X1240212Y133470D01*
X1240061Y133580D01*
X1239912Y133693D01*
X1239766Y133810D01*
X1239623Y133930D01*
X1239483Y134054D01*
X1239346Y134181D01*
X1239212Y134312D01*
X1239081Y134446D01*
X1238954Y134583D01*
X1238830Y134723D01*
X1238710Y134866D01*
X1238593Y135012D01*
X1238480Y135161D01*
X1238370Y135312D01*
X1238264Y135467D01*
X1238162Y135623D01*
X1238064Y135783D01*
X1237970Y135944D01*
X1237880Y136108D01*
X1237794Y136274D01*
X1237712Y136442D01*
X1237634Y136612D01*
X1237560Y136784D01*
X1237491Y136958D01*
X1237425Y137133D01*
X1237365Y137310D01*
X1237308Y137488D01*
X1237256Y137668D01*
X1237208Y137848D01*
X1237165Y138030D01*
X1237126Y138213D01*
X1237092Y138397D01*
X1237062Y138582D01*
X1237037Y138767D01*
X1237017Y138953D01*
X1237001Y139139D01*
X1236989Y139326D01*
X1236982Y139513D01*
X1236980Y139700D01*
D14*
X1244600Y139700D03*
D15*
X31750Y857250D03*
D16*
X385490Y687330D03*
D17*
X385490Y661930D03*
X410890Y687330D03*
X410890Y661930D03*
X436290Y687330D03*
X436290Y661930D03*
X461690Y687330D03*
X461690Y661930D03*
X487090Y687330D03*
X487090Y661930D03*
X512490Y687330D03*
X512490Y661930D03*
X537890Y687330D03*
X537890Y661930D03*
X563290Y687330D03*
X563290Y661930D03*
X588690Y687330D03*
X588690Y661930D03*
X614090Y687330D03*
X614090Y661930D03*
X639490Y687330D03*
X639490Y661930D03*
X664890Y687330D03*
X664890Y661930D03*
X690290Y687330D03*
X690290Y661930D03*
X715690Y687330D03*
X715690Y661930D03*
X741090Y687330D03*
X741090Y661930D03*
X766490Y687330D03*
X766490Y661930D03*
X791890Y687330D03*
X791890Y661930D03*
X817290Y687330D03*
X817290Y661930D03*
D16*
X385490Y433330D03*
D17*
X385490Y407930D03*
X410890Y433330D03*
X410890Y407930D03*
X436290Y433330D03*
X436290Y407930D03*
X461690Y433330D03*
X461690Y407930D03*
X487090Y433330D03*
X487090Y407930D03*
X512490Y433330D03*
X512490Y407930D03*
X537890Y433330D03*
X537890Y407930D03*
X563290Y433330D03*
X563290Y407930D03*
X588690Y433330D03*
X588690Y407930D03*
X614090Y433330D03*
X614090Y407930D03*
X639490Y433330D03*
X639490Y407930D03*
X664890Y433330D03*
X664890Y407930D03*
X690290Y433330D03*
X690290Y407930D03*
X715690Y433330D03*
X715690Y407930D03*
X741090Y433330D03*
X741090Y407930D03*
X766490Y433330D03*
X766490Y407930D03*
X791890Y433330D03*
X791890Y407930D03*
X817290Y433330D03*
X817290Y407930D03*
D18*
X214900Y679050D03*
X214900Y629050D03*
X89900Y629050D03*
X89900Y679050D03*
D19*
X546100Y776920D03*
X546100Y863920D03*
D18*
X919750Y139300D03*
X919750Y89300D03*
X794750Y89300D03*
X794750Y139300D03*
X214900Y469500D03*
X214900Y419500D03*
X89900Y419500D03*
X89900Y469500D03*
X1186450Y139300D03*
X1186450Y89300D03*
X1061450Y89300D03*
X1061450Y139300D03*
D15*
X31750Y31750D03*
X1231900Y38100D03*
X1238250Y850900D03*
D20*
X241300Y857250D03*
X241300Y831850D03*
X241300Y806450D03*
X241300Y781050D03*
X241300Y755650D03*
X241300Y730250D03*
X241300Y704850D03*
X241300Y679450D03*
X241300Y654050D03*
X241300Y628650D03*
X241300Y603250D03*
X241300Y577850D03*
X241300Y552450D03*
X241300Y527050D03*
X241300Y501650D03*
X241300Y476250D03*
X241300Y450850D03*
X241300Y425450D03*
X241300Y400050D03*
X241300Y374650D03*
X901700Y857250D03*
X901700Y831850D03*
X901700Y806450D03*
X901700Y781050D03*
X901700Y755650D03*
X901700Y730250D03*
X901700Y704850D03*
X901700Y679450D03*
X901700Y654050D03*
X901700Y628650D03*
X901700Y603250D03*
X901700Y577850D03*
X901700Y552450D03*
X901700Y527050D03*
X901700Y501650D03*
X901700Y476250D03*
X901700Y450850D03*
X901700Y425450D03*
X901700Y400050D03*
X901700Y374650D03*
M02*
